<svg width="22" height="22" viewBox="0 0 22 22" fill="none" xmlns="http://www.w3.org/2000/svg">
<path d="M16.9266 21.1302C16.6276 21.1302 16.3286 21.1302 16.0295 21.1302C15.9844 21.1182 15.9404 21.1008 15.8947 21.0943C13.9636 20.8214 12.6012 19.789 11.7873 18.0226C11.7515 17.9449 11.7178 17.866 11.6824 17.7866C11.5873 17.7866 11.5063 17.7866 11.4247 17.7866C8.4835 17.7866 5.54174 17.7872 2.60052 17.7861C1.74588 17.7856 1.04456 17.2957 0.791209 16.5275C0.755327 16.4188 0.728687 16.3068 0.698242 16.1964C0.698242 11.9423 0.698242 7.6881 0.698242 3.43393C0.805888 3.14416 0.874389 2.83101 1.02933 2.56897C1.4436 1.86981 2.08241 1.51045 2.89464 1.48001C3.29913 1.46533 3.7047 1.47729 4.12332 1.47729C4.12332 1.27559 4.12223 1.09999 4.12332 0.924384C4.12658 0.529684 4.37884 0.254047 4.73494 0.254047C5.09159 0.254047 5.3433 0.529684 5.34602 0.925471C5.34765 1.10597 5.34602 1.28646 5.34602 1.45989C6.09736 1.45989 6.81935 1.45989 7.54786 1.45989C7.54786 1.25982 7.54568 1.07661 7.5484 0.893395C7.55438 0.528597 7.80936 0.259484 8.15024 0.254047C8.49927 0.24861 8.76403 0.52153 8.77001 0.896114C8.77327 1.08422 8.77056 1.27233 8.77056 1.46315C9.51538 1.46315 10.2379 1.46315 10.9724 1.46315C10.9724 1.27396 10.9713 1.09836 10.9724 0.922753C10.9757 0.528597 11.229 0.252416 11.5862 0.254047C11.9423 0.255678 12.1924 0.531315 12.1951 0.927646C12.1967 1.1076 12.1951 1.28809 12.1951 1.46642C12.9432 1.46642 13.6608 1.46642 14.3969 1.46642C14.3969 1.26798 14.3942 1.07933 14.3975 0.891221C14.4035 0.526966 14.6601 0.257853 15.0015 0.254047C15.3505 0.250241 15.6136 0.522617 15.6191 0.898288C15.6218 1.0864 15.6196 1.27396 15.6196 1.47675C16.0024 1.47675 16.3612 1.47022 16.7195 1.47946C16.9152 1.48436 17.1152 1.49469 17.305 1.53872C18.3537 1.78283 19.0431 2.67281 19.0442 3.78134C19.0469 6.33547 19.0463 8.8896 19.042 11.4437C19.042 11.5818 19.0849 11.6579 19.2024 11.7351C20.6333 12.6778 21.4347 14.0076 21.5608 15.7158C21.7282 17.9748 20.2935 20.119 18.1466 20.841C17.7535 20.9736 17.3343 21.0356 16.9266 21.1302ZM17.8171 6.79214C12.5104 6.79214 7.22112 6.79214 1.92148 6.79214C1.92148 6.86717 1.92148 6.92752 1.92148 6.98841C1.92148 9.9443 1.92148 12.9002 1.92148 15.8566C1.92148 16.3285 2.1607 16.5634 2.64075 16.5639C5.48792 16.5645 8.33508 16.5639 11.1828 16.5639C11.2546 16.5639 11.3263 16.5639 11.3975 16.5639C11.2839 14.7807 11.845 13.2916 13.1943 12.1494C14.5405 11.0093 16.1024 10.706 17.8171 11.1061C17.8171 9.65834 17.8171 8.23285 17.8171 6.79214ZM16.4846 12.1597C14.3556 12.157 12.6126 13.887 12.6045 16.011C12.5963 18.1509 14.3279 19.8999 16.4612 19.9064C18.5994 19.9129 20.3468 18.1786 20.3517 16.0442C20.3566 13.9065 18.6201 12.1625 16.4846 12.1597ZM1.9242 5.53954C7.23579 5.53954 12.524 5.53954 17.8198 5.53954C17.8198 4.89367 17.8345 4.26248 17.8149 3.63183C17.8008 3.17841 17.4512 2.7761 16.9902 2.72772C16.5433 2.68096 16.0872 2.71739 15.6213 2.71739C15.6213 2.90114 15.6223 3.07675 15.6213 3.25235C15.618 3.64759 15.3652 3.92323 15.0085 3.92269C14.6525 3.9216 14.4013 3.64596 14.3986 3.24963C14.3975 3.06914 14.3986 2.88918 14.3986 2.71032C13.6505 2.71032 12.9334 2.71032 12.1967 2.71032C12.1967 2.90876 12.1994 3.09741 12.1962 3.28606C12.1897 3.65031 11.9325 3.91943 11.5911 3.92269C11.2415 3.92595 10.9795 3.65357 10.974 3.27736C10.9713 3.0898 10.9735 2.90169 10.9735 2.71521C10.2259 2.71521 9.50341 2.71521 8.77164 2.71521C8.77164 2.91311 8.77382 3.09578 8.7711 3.27899C8.76512 3.65466 8.50199 3.92704 8.15295 3.92269C7.81153 3.91834 7.55547 3.64923 7.54949 3.28443C7.54623 3.09578 7.54894 2.90767 7.54894 2.71249C6.8063 2.71249 6.08432 2.71249 5.34711 2.71249C5.34711 2.90006 5.3482 3.07566 5.34711 3.25126C5.34385 3.64705 5.09213 3.92269 4.73549 3.92269C4.37884 3.92269 4.12713 3.64651 4.12441 3.25126C4.12332 3.07077 4.12441 2.89027 4.12441 2.70325C3.68132 2.70325 3.26705 2.68694 2.85387 2.7076C2.36403 2.73152 1.94595 3.14416 1.93018 3.63346C1.90898 4.26357 1.9242 4.89476 1.9242 5.53954Z" fill="white"/>
<path d="M4.43357 11.0594C4.6032 11.0594 4.77227 11.0545 4.9419 11.0604C5.28712 11.0719 5.54971 11.3383 5.54917 11.6704C5.54917 12.0032 5.28767 12.2728 4.9419 12.2804C4.59667 12.288 4.2509 12.2891 3.90568 12.2799C3.56371 12.2706 3.30275 11.9923 3.30819 11.6607C3.31363 11.3377 3.57241 11.074 3.90513 11.061C4.08128 11.0534 4.25743 11.0594 4.43357 11.0594Z" fill="white"/>
<path d="M8.05626 11.0588C8.22588 11.0588 8.39496 11.055 8.56458 11.0599C8.91198 11.0697 9.17512 11.3307 9.17892 11.6634C9.18273 11.9961 8.92231 12.2712 8.57872 12.2799C8.23349 12.2886 7.88772 12.2881 7.54249 12.2799C7.1989 12.2717 6.93685 11.9988 6.93848 11.6672C6.94012 11.3356 7.20379 11.0708 7.54902 11.0599C7.71755 11.0545 7.88663 11.0588 8.05626 11.0588Z" fill="white"/>
<path d="M11.7 11.0588C11.8696 11.0588 12.0387 11.0534 12.2083 11.0599C12.5514 11.0729 12.8124 11.3453 12.808 11.6775C12.8037 12.0015 12.5465 12.2695 12.2132 12.2788C11.8609 12.288 11.5086 12.2886 11.1564 12.2782C10.8236 12.2684 10.5681 11.9961 10.567 11.672C10.5654 11.3404 10.8285 11.0713 11.1721 11.0599C11.3477 11.0539 11.5239 11.0588 11.7 11.0588Z" fill="white"/>
<path d="M8.07423 8.31063C8.24385 8.31063 8.41401 8.30356 8.58364 8.31171C8.91636 8.32748 9.16481 8.57485 9.17786 8.89343C9.19145 9.21854 8.95333 9.50179 8.61136 9.51973C8.23896 9.5393 7.86383 9.5393 7.49142 9.5181C7.16087 9.49907 6.92818 9.21909 6.93688 8.90159C6.94558 8.58354 7.19349 8.32911 7.52349 8.31226C7.70725 8.30301 7.89101 8.31063 8.07423 8.31063Z" fill="white"/>
<path d="M11.6873 8.31065C11.864 8.31065 12.0413 8.30359 12.2174 8.31228C12.549 8.32859 12.7969 8.57922 12.8078 8.89781C12.8187 9.21585 12.5871 9.4991 12.2576 9.51759C11.8787 9.53933 11.4965 9.53879 11.1176 9.51759C10.7887 9.4991 10.5565 9.21477 10.5674 8.89727C10.5783 8.57922 10.8267 8.32805 11.1578 8.31174C11.3334 8.30304 11.5106 8.31065 11.6873 8.31065Z" fill="white"/>
<path d="M15.3126 9.52249C15.1223 9.52249 14.9309 9.53717 14.7428 9.51923C14.415 9.48769 14.1834 9.21151 14.1959 8.89456C14.2084 8.58413 14.4504 8.32643 14.77 8.31501C15.1365 8.30196 15.504 8.30088 15.8704 8.31556C16.1884 8.32806 16.4282 8.59119 16.4369 8.90163C16.4456 9.21206 16.2211 9.48389 15.903 9.51705C15.7084 9.53717 15.51 9.52086 15.3131 9.52086C15.3126 9.52086 15.3126 9.5214 15.3126 9.52249Z" fill="white"/>
<path d="M4.42945 13.8152C4.60614 13.8152 4.78338 13.8081 4.95952 13.8168C5.29116 13.8337 5.53907 14.0843 5.54994 14.4029C5.56081 14.7209 5.32921 15.0042 4.99921 15.0227C4.62028 15.0439 4.23808 15.0439 3.85915 15.0227C3.53023 15.0042 3.29809 14.7198 3.30896 14.4023C3.31983 14.0843 3.56829 13.8331 3.89992 13.8168C4.07553 13.8076 4.25276 13.8152 4.42945 13.8152Z" fill="white"/>
<path d="M8.07117 13.8147C8.24079 13.8147 8.41096 13.8082 8.58058 13.8163C8.922 13.8321 9.17481 14.0892 9.17916 14.4154C9.18351 14.7335 8.94919 15.0069 8.61592 15.0243C8.24351 15.0439 7.86838 15.0445 7.49598 15.0238C7.16488 15.0053 6.93111 14.7281 6.93763 14.4106C6.9447 14.0844 7.19805 13.8305 7.5411 13.8163C7.71725 13.8082 7.89448 13.8142 8.07117 13.8147Z" fill="white"/>
<path d="M17.0896 15.4218C17.5561 15.4218 17.9964 15.4212 18.4368 15.4218C18.85 15.4228 19.1283 15.6702 19.1273 16.0339C19.1267 16.3976 18.8489 16.6439 18.4352 16.6445C17.8034 16.6455 17.1717 16.6461 16.54 16.6445C16.1175 16.6434 15.868 16.3949 15.8669 15.9741C15.8647 15.3353 15.8653 14.697 15.8669 14.0582C15.868 13.6614 16.1181 13.3857 16.4742 13.3836C16.8308 13.3814 17.0869 13.657 17.0891 14.0512C17.0912 14.4986 17.0896 14.946 17.0896 15.4218Z" fill="white"/>
</svg>
