<svg width="25" height="25" viewBox="0 0 25 25" fill="none" xmlns="http://www.w3.org/2000/svg">
<path d="M24.9127 13.2506C24.5321 14.0459 23.8822 14.6386 23.3361 15.3072C22.4195 16.4292 21.4701 17.5243 20.5485 18.642C19.6935 19.6787 18.5862 20.1748 17.2594 20.1836C15.2273 20.1974 13.1939 20.2043 11.1619 20.178C10.4616 20.1686 10.03 20.5599 9.60413 21.0071C9.57204 21.041 9.5733 21.1225 9.584 21.1777C9.69032 21.7284 9.54436 22.1932 9.1392 22.5864C8.42514 23.2795 7.71989 23.9813 7.00897 24.6775C6.70888 24.9716 6.47484 24.9716 6.18041 24.6756C4.46603 22.9552 2.75292 21.2335 1.0398 19.5113C0.756691 19.2265 0.754175 18.9832 1.03414 18.7016C1.74191 17.9909 2.45219 17.2835 3.16059 16.5729C3.48271 16.2499 3.86522 16.0931 4.32574 16.1119C4.39809 16.115 4.50756 16.0586 4.54216 15.9971C6.10617 13.2625 9.5236 12.5902 11.9822 13.5322C12.103 13.5786 12.2408 13.5974 12.371 13.5981C13.9797 13.6025 15.5884 13.6081 17.1971 13.5974C17.8526 13.593 18.4182 13.7705 18.9347 14.3701C18.975 14.2805 18.9907 14.192 19.0429 14.1381C19.9149 13.2374 20.7919 12.3418 21.6658 11.443C22.7164 10.3624 24.3031 10.6716 24.8731 12.0696C24.8813 12.0903 24.8995 12.1066 24.9134 12.1248C24.9127 12.4992 24.9127 12.8749 24.9127 13.2506ZM8.99891 20.262C9.04106 20.2244 9.09768 20.1817 9.14424 20.1309C9.73688 19.4799 10.4692 19.2253 11.3512 19.2391C13.2965 19.2692 15.243 19.2485 17.1889 19.2485C18.1244 19.2485 18.9857 18.9913 19.6035 18.2795C21.0304 16.6356 22.4138 14.9541 23.808 13.2826C24.1477 12.8749 24.0949 12.3117 23.713 11.9736C23.333 11.6368 22.7693 11.6607 22.3981 12.0401C21.3953 13.0643 20.3949 14.091 19.3972 15.1209C19.3437 15.1761 19.2977 15.2652 19.2971 15.3392C19.2871 16.581 18.5107 17.3631 17.2688 17.3669C16.0842 17.37 14.8995 17.3681 13.7142 17.3663C13.6129 17.3663 13.5085 17.36 13.4122 17.333C13.2109 17.2766 13.0807 17.0759 13.0926 16.8664C13.1046 16.6556 13.2543 16.4775 13.4645 16.4418C13.5639 16.4248 13.6677 16.4248 13.769 16.4248C14.9303 16.4236 16.0917 16.4248 17.2524 16.423C17.3695 16.423 17.489 16.4192 17.6035 16.3979C18.0904 16.3076 18.4245 15.8177 18.3364 15.3329C18.244 14.8255 17.8703 14.542 17.2776 14.5407C15.5985 14.5382 13.9193 14.5426 12.2402 14.5357C12.0722 14.5351 11.8942 14.5075 11.7375 14.4479C10.2773 13.8916 8.83156 13.9449 7.41602 14.5784C6.47862 14.998 5.78028 15.6904 5.30718 16.5754C6.54531 17.8103 7.76833 19.0321 8.99891 20.262ZM6.70762 23.7706C7.27509 23.1747 7.86648 22.5494 8.46352 21.9285C8.75355 21.6274 8.76047 21.3972 8.46352 21.1012C7.18198 19.8224 5.89982 18.5448 4.61703 17.2678C4.32196 16.9736 4.0917 16.9768 3.79161 17.2759C3.22539 17.8404 2.66044 18.4055 2.09611 18.9713C2.05395 19.0133 2.01684 19.0597 1.95518 19.1299C3.51857 20.6565 5.07063 22.1718 6.70762 23.7706Z" fill="white"/>
<path d="M15.3535 0.809525C15.6441 0.869108 15.9392 0.913639 16.2254 0.990784C18.6243 1.6368 20.1789 3.80062 20.0606 6.31944C19.9518 8.64069 18.1298 10.6634 15.7731 11.0799C12.8797 11.591 10.1116 9.5564 9.741 6.64558C9.37736 3.78808 11.3862 1.20779 14.2537 0.850292C14.3072 0.843393 14.3588 0.823323 14.4116 0.809525C14.7256 0.809525 15.0395 0.809525 15.3535 0.809525ZM14.869 10.2099C17.2088 10.2181 19.1144 8.33587 19.1244 6.00647C19.1345 3.67142 17.2465 1.76098 14.9194 1.75032C12.5639 1.73966 10.6488 3.62187 10.6406 5.95692C10.6325 8.30577 12.5173 10.2018 14.869 10.2099Z" fill="white"/>
<path d="M15.2594 3.65636C15.4985 3.82194 15.7219 3.95365 15.9175 4.11735C16.1434 4.30613 16.1566 4.58022 15.9817 4.78343C15.8099 4.98288 15.54 4.99668 15.3066 4.82608C15.194 4.74392 15.077 4.66175 14.9505 4.60593C14.7662 4.52377 14.5945 4.57896 14.4554 4.71757C14.3233 4.84991 14.2805 5.01236 14.346 5.19173C14.4133 5.37801 14.5479 5.4815 14.7467 5.50721C14.9015 5.52666 15.0606 5.53732 15.2091 5.58185C15.7502 5.74367 16.1427 6.22786 16.1969 6.77854C16.2528 7.34803 15.9672 7.90122 15.4538 8.16025C15.294 8.24116 15.2368 8.33022 15.2569 8.49956C15.2708 8.61497 15.267 8.73476 15.2544 8.85079C15.2274 9.10481 15.0254 9.27478 14.7719 9.26725C14.5315 9.26035 14.3025 9.08223 14.3296 8.84327C14.3774 8.42493 14.244 8.16652 13.8496 7.99906C13.6879 7.9307 13.5595 7.76198 13.4425 7.61773C13.2852 7.4233 13.318 7.1674 13.4929 7.00182C13.6759 6.82871 13.932 6.82621 14.1327 6.99618C14.2579 7.10217 14.3711 7.22636 14.5089 7.31103C14.6951 7.4258 14.9008 7.43082 15.0801 7.28531C15.2406 7.15548 15.3003 6.98175 15.233 6.78167C15.1594 6.56278 14.9914 6.46808 14.7681 6.44863C14.0295 6.38403 13.5419 5.97698 13.401 5.3109C13.2689 4.68872 13.5709 4.10731 14.1943 3.75859C14.2522 3.72598 14.3 3.63754 14.312 3.56855C14.3315 3.4544 14.3158 3.33461 14.3176 3.21732C14.3233 2.9031 14.5202 2.68734 14.7945 2.6911C15.0625 2.69549 15.2525 2.90372 15.2582 3.20603C15.2626 3.37036 15.2594 3.53405 15.2594 3.65636Z" fill="white"/>
</svg>
