<svg width="21" height="21" viewBox="0 0 21 21" fill="none" xmlns="http://www.w3.org/2000/svg">
<g clip-path="url(#clip0_639_18181)">
<path d="M19.7093 2.98156C13.5781 2.98156 7.47655 2.98156 1.35468 2.98156C1.35468 3.06451 1.35468 3.1373 1.35468 3.21094C1.35468 7.34826 1.35468 11.4856 1.35468 15.6229C1.35468 16.3466 1.74407 16.736 2.46698 16.736C6.13316 16.736 9.80018 16.736 13.4664 16.736C13.5138 16.736 13.562 16.7351 13.6094 16.736C13.8693 16.7393 14.0157 16.8578 14.014 17.0652C14.0132 17.2717 13.8676 17.3911 13.6052 17.3911C9.8569 17.3919 6.10776 17.3936 2.35947 17.3902C1.41393 17.3894 0.699491 16.6742 0.698644 15.7287C0.696105 11.1546 0.695258 6.57971 0.698644 2.00563C0.70203 1.07034 1.41478 0.352568 2.34762 0.351721C7.80329 0.348336 13.259 0.348336 18.7138 0.351721C19.6475 0.352568 20.3619 1.0678 20.3628 2.0031C20.3662 6.58394 20.3645 11.1656 20.3645 15.7465C20.3645 16.0614 20.2824 16.3534 20.1147 16.62C19.9937 16.8113 19.8117 16.8629 19.6449 16.7613C19.4883 16.6657 19.4672 16.4922 19.5417 16.2924C19.6179 16.0859 19.7025 15.865 19.7025 15.65C19.7118 11.4924 19.7093 7.33472 19.7093 3.17624C19.7093 3.11614 19.7093 3.05605 19.7093 2.98156ZM1.36907 2.30273C5.73869 2.30273 10.0956 2.30273 14.4491 2.30273C14.4491 1.86344 14.4491 1.43853 14.4491 1.00516C14.3518 1.00516 14.2697 1.00516 14.1884 1.00516C10.7144 1.00516 7.24122 1.00516 3.7672 1.00516C3.28977 1.00516 2.8115 1.00093 2.33408 1.00685C1.84988 1.01278 1.45203 1.34712 1.37246 1.82196C1.34706 1.97347 1.36907 2.13344 1.36907 2.30273ZM15.1297 2.30696C16.6653 2.30696 18.1771 2.30696 19.6873 2.30696C19.8075 1.50963 19.3825 1.00601 18.5995 1.00601C17.5152 1.00601 16.4308 1.00601 15.3464 1.00601C15.2745 1.00601 15.2025 1.00601 15.1289 1.00601C15.1297 1.45461 15.1297 1.87444 15.1297 2.30696Z" fill="white"/>
<path d="M13.7649 14.5268C13.1977 15.0093 12.579 15.3554 11.8806 15.5577C8.98473 16.3974 5.99152 14.4058 5.65038 11.4086C5.34987 8.76604 7.15122 6.38335 9.78636 5.97622C11.1602 5.76377 12.4139 6.09472 13.5253 6.93861C13.737 7.09943 13.7827 7.27718 13.6616 7.44392C13.538 7.61405 13.3383 7.61913 13.1233 7.45831C10.5313 5.51492 6.90235 6.94114 6.32504 10.1305C5.89925 12.4835 7.65319 14.818 10.0302 15.0609C12.3487 15.2979 14.349 13.7853 14.7384 11.4941C14.8459 10.8592 14.7917 10.2295 14.6131 9.60992C14.5318 9.32806 14.7104 9.10714 14.9745 9.1537C15.1388 9.18248 15.2065 9.30098 15.2471 9.4491C15.6737 11.0099 15.413 12.4463 14.47 13.7608C14.4345 13.8107 14.3964 13.859 14.3583 13.9072C14.3202 13.9555 14.2813 14.002 14.2271 14.0689C14.5039 14.344 14.7756 14.6208 15.0575 14.8865C15.0905 14.9178 15.1819 14.917 15.2327 14.8967C15.7863 14.6741 16.2798 14.7536 16.7344 15.1481C17.5386 15.8455 18.3546 16.5303 19.1639 17.2235C19.8597 17.8202 19.8902 18.6616 19.2417 19.3142C19.1359 19.4208 19.0318 19.5292 18.9226 19.6316C18.3656 20.1564 17.5225 20.1487 17.0171 19.5766C16.2443 18.7014 15.4901 17.8101 14.746 16.9112C14.4142 16.51 14.3778 16.0394 14.5852 15.5628C14.6351 15.4486 14.6216 15.3825 14.5352 15.2996C14.2753 15.0482 14.0248 14.7883 13.7649 14.5268ZM19.0547 18.2883C19.0716 18.2781 19.0885 18.268 19.1046 18.2587C19.0098 18.1012 18.9463 17.9066 18.8151 17.7915C17.9635 17.0449 17.0993 16.3128 16.2324 15.584C15.9514 15.3478 15.5679 15.3775 15.3216 15.6255C15.0761 15.8735 15.0507 16.2569 15.2869 16.5379C16.0166 17.4046 16.7471 18.2697 17.4971 19.1178C17.6097 19.2448 17.8213 19.3328 17.9948 19.3472C18.4164 19.381 19.0589 18.7132 19.0547 18.2883Z" fill="white"/>
<path d="M16.76 6.08881C16.0981 6.78965 15.4784 7.44394 14.8596 8.09822C13.8565 9.16048 12.8534 10.2236 11.8503 11.2859C11.5938 11.5576 11.4499 11.5593 11.1858 11.2952C10.7567 10.866 10.3283 10.436 9.88476 9.99167C9.82297 10.0509 9.76879 10.1 9.718 10.1516C9.22534 10.6434 8.73268 11.1369 8.24002 11.6287C8.19177 11.6769 8.14352 11.7277 8.0868 11.7632C7.93951 11.8538 7.79476 11.836 7.67795 11.7116C7.56028 11.5872 7.54674 11.4382 7.65255 11.3019C7.73551 11.1944 7.83878 11.1022 7.93528 11.0057C8.47535 10.4648 9.01626 9.92396 9.55717 9.38309C9.80943 9.13086 9.94486 9.13001 10.1937 9.37801C10.628 9.81138 11.0605 10.2456 11.51 10.6959C13.1116 8.99966 14.7022 7.31528 16.3283 5.59281C15.9685 5.59281 15.6587 5.59281 15.3481 5.59281C15.2727 5.59281 15.1974 5.59619 15.1229 5.59111C14.929 5.57757 14.7961 5.44299 14.7961 5.26524C14.7961 5.08749 14.9282 4.94275 15.1229 4.94106C15.7781 4.93513 16.4341 4.93513 17.0893 4.94106C17.2831 4.94275 17.4118 5.07225 17.4135 5.26693C17.4194 5.92206 17.4194 6.57804 17.4135 7.23318C17.4118 7.42701 17.2645 7.55905 17.0868 7.5582C16.909 7.55736 16.7676 7.42447 16.7642 7.22894C16.7549 6.87006 16.76 6.51033 16.76 6.08881Z" fill="white"/>
</g>
<defs>
<clipPath id="clip0_639_18181">
<rect width="19.6667" height="19.6667" fill="white" transform="translate(0.698242 0.349121)"/>
</clipPath>
</defs>
</svg>
