<svg width="17" height="16" viewBox="0 0 17 16" fill="none" xmlns="http://www.w3.org/2000/svg">
<path d="M5.05795 15.5518H5.0579C2.99606 15.5502 1.30178 14.1668 0.901923 12.1474L5.05795 15.5518ZM5.05795 15.5518C5.82041 15.5521 6.58291 15.552 7.34536 15.5519M5.05795 15.5518L7.34536 15.5519M15.3732 3.32677L15.3732 3.32681C15.9264 3.83225 16.1849 4.44444 16.1801 5.19258C16.179 5.35716 16.1779 5.52173 16.1768 5.68628C16.1645 7.53479 16.1522 9.38151 16.1826 11.2273C16.2184 13.4162 14.6891 15.1187 12.8418 15.4649L12.8417 15.4649C12.5832 15.5132 12.3146 15.5467 12.046 15.5483L15.3732 3.32677ZM15.3732 3.32677C14.4694 2.50163 13.5766 1.66337 12.6833 0.824733L12.6802 0.821844C12.6802 0.821839 12.6802 0.821834 12.6802 0.82183C12.2338 0.402618 11.7066 0.203503 11.1012 0.204033L15.3732 3.32677ZM10.854 1.51865H10.8536H10.8531H10.8527H10.8522H10.8518H10.8513H10.8509H10.8504H10.8499H10.8495H10.849H10.8486H10.8481H10.8477H10.8472H10.8468H10.8463H10.8459H10.8454H10.845H10.8445H10.844H10.8436H10.8431H10.8427H10.8422H10.8418H10.8413H10.8409H10.8404H10.84H10.8395H10.8391H10.8386H10.8382H10.8377H10.8373H10.8368H10.8364H10.8359H10.8355H10.8351H10.8346H10.8342H10.8337H10.8333H10.8328H10.8324H10.8319H10.8315H10.831H10.8306H10.8301H10.8297H10.8293H10.8288H10.8284H10.8279H10.8275H10.827H10.8266H10.8261H10.8257H10.8253H10.8248H10.8244H10.8239H10.8235H10.823H10.8226H10.8222H10.8217H10.8213H10.8208H10.8204H10.8199H10.8195H10.8191H10.8186H10.8182H10.8177H10.8173H10.8169H10.8164H10.816H10.8155H10.8151H10.8147H10.8142H10.8138H10.8133H10.8129H10.8125H10.812H10.8116H10.8111H10.8107H10.8103H10.8098H10.8094H10.809H10.8085H10.8081H10.8076H10.8072H10.8068H10.8063H10.8059H10.8055H10.805H10.8046H10.8041H10.8037H10.8033H10.8028H10.8024H10.802H10.8015H10.8011H10.8007H10.8002H10.7998H10.7994H10.7989H10.7985H10.798H10.7976H10.7972H10.7967H10.7963H10.7959H10.7954H10.795H10.7946H10.7941H10.7937H10.7933H10.7928H10.7924H10.792H10.7915H10.7911H10.7907H10.7902H10.7898H10.7894H10.7889H10.7885H10.7881H10.7876H10.7872H10.7868H10.7863H10.7859H10.7855H10.785H10.7846H10.7842H10.7837H10.7833H10.7829H10.7824H10.782H10.7816H10.7811H10.7807H10.7803H10.7798H10.7794H10.779H10.7785H10.7781H10.7777H10.7773H10.7768H10.7764H10.776H10.7755H10.7751H10.7747H10.7742H10.7738H10.7734H10.7729H10.7725H10.7721H10.7716H10.7712H10.7708H10.7703H10.7699H10.7695H10.7691H10.7686H10.7682H10.7678H10.7673H10.7669H10.7665H10.766H10.7656H10.7652H10.7647H10.7643H10.7639H10.7634H10.763H10.7626H10.7621C10.1884 1.51865 9.61469 1.51838 9.04109 1.51811C7.70289 1.51748 6.36502 1.51684 5.02678 1.51965C3.41178 1.52298 2.15279 2.78182 2.14993 4.39496C2.14993 4.39496 2.14993 4.39496 2.14993 4.39496L1.99331 4.39469L10.854 1.51865ZM10.854 1.51865C10.8539 1.61365 10.8539 1.70747 10.8538 1.80036C10.8536 2.1516 10.8534 2.48949 10.8545 2.82698C10.8578 4.07549 11.8023 5.02323 13.0495 5.02593C13.5068 5.027 13.9643 5.0268 14.4319 5.0266C14.5726 5.02654 14.7143 5.02648 14.8571 5.02645C14.8594 5.06771 14.861 5.10621 14.861 5.14646V5.1465C14.8611 5.60527 14.8612 6.06401 14.8614 6.52272C14.862 8.12721 14.8625 9.73141 14.861 11.3359C14.8595 12.728 13.9731 13.8548 12.6221 14.1742L12.6218 14.1743C12.423 14.2217 12.2072 14.2342 11.9876 14.2347L10.854 1.51865ZM12.1768 2.98275L12.1769 2.98295C12.2521 3.42185 12.5841 3.70538 13.0366 3.71183L13.0367 3.71184C13.2443 3.71495 13.451 3.71422 13.6594 3.71348C13.7235 3.71325 13.7877 3.71302 13.8522 3.7129C13.6069 3.4841 13.3664 3.25983 13.1271 3.03671C12.8079 2.73904 12.4909 2.44341 12.1675 2.14174C12.1674 2.35958 12.1674 2.5593 12.1681 2.75931M12.1768 2.98275L12.1681 2.75931M12.1768 2.98275C12.168 2.93131 12.168 2.8793 12.1682 2.8127C12.1682 2.7959 12.1682 2.77818 12.1681 2.75931M12.1768 2.98275L12.1681 2.75931M7.34536 15.5519C7.72656 15.5519 8.10775 15.5518 8.48891 15.5518M7.34536 15.5519L8.48891 15.5518M8.48891 15.5518C8.8023 15.5518 9.11585 15.5521 9.42952 15.5524M8.48891 15.5518L9.42952 15.5524M9.42952 15.5524C10.3013 15.5533 11.1739 15.5542 12.046 15.5483L9.42952 15.5524Z" fill="#8F95B2" stroke="#8F95B2" stroke-width="0.31325"/>
<path d="M6.30698 8.53472L6.30694 8.53472C6.10747 8.53292 5.92769 8.46826 5.79667 8.34836C5.66442 8.22733 5.59063 8.05756 5.59422 7.86695L5.59422 7.8669C5.59776 7.68198 5.67102 7.51819 5.80099 7.4013C5.92984 7.28541 6.10448 7.22422 6.29865 7.22212L6.29877 7.22212C6.6469 7.21863 6.99569 7.21755 7.34385 7.21646C7.51206 7.21594 7.68012 7.21541 7.84789 7.21462V7.21422V7.2113V7.20837V7.20544V7.20251V7.19958V7.19666V7.19373V7.1908V7.18787V7.18494V7.182V7.17907V7.17614V7.17321V7.17028V7.16734V7.16441V7.16148V7.15854V7.15561V7.15267V7.14974V7.1468V7.14387V7.14093V7.138V7.13506V7.13212V7.12919V7.12625V7.12331V7.12037V7.11743V7.11449V7.11156V7.10862V7.10568V7.10274V7.09979V7.09685V7.09391V7.09097V7.08803V7.08509V7.08214V7.0792V7.07626V7.07331V7.07037V7.06742V7.06448V7.06153V7.05859V7.05564V7.0527V7.04975V7.0468V7.04386V7.04091V7.03796V7.03501V7.03207V7.02912V7.02617V7.02322V7.02027V7.01732V7.01437V7.01142V7.00847V7.00552V7.00257V6.99961V6.99666V6.99371V6.99076V6.9878V6.98485V6.9819V6.97894V6.97599V6.97303V6.97008V6.96712V6.96417V6.96121V6.95826V6.9553V6.95234V6.94939V6.94643V6.94347V6.94051V6.93755V6.9346V6.93164V6.92868V6.92572V6.92276V6.9198V6.91684V6.91388V6.91092V6.90796V6.905V6.90203V6.89907V6.89611V6.89315V6.89018V6.88722V6.88426V6.88129V6.87833V6.87537V6.8724V6.86944V6.86647V6.86351V6.86054V6.85757V6.85461V6.85164V6.84867V6.84571V6.84274V6.83977V6.8368V6.83384V6.83087V6.8279V6.82493V6.82196V6.81899V6.81602V6.81305V6.81008V6.80711V6.80414V6.80117V6.7982V6.79523V6.79225V6.78928V6.78631V6.78334V6.78036V6.77739V6.77442V6.77144V6.76847V6.7655V6.76252V6.75955V6.75657V6.7536V6.75062V6.74765V6.74467V6.74169V6.73872V6.73574V6.73276V6.72979V6.72681V6.72383V6.72086V6.71788V6.7149V6.71192V6.70894V6.70596V6.70298V6.7V6.69702V6.69404V6.69106V6.68808V6.6851V6.68212V6.67914V6.67616V6.67318V6.6702V6.66721V6.66423V6.66125V6.65827V6.65528V6.6523V6.64932V6.64633V6.64335V6.64037V6.63738V6.6344V6.63141V6.62843V6.62544V6.62246V6.61947V6.61648V6.6135V6.61051V6.60753V6.60454V6.60155V6.59857V6.59558V6.59259V6.5896V6.58661V6.58363V6.58064V6.57765V6.57466V6.57167V6.56868V6.56569V6.5627V6.55971V6.55672V6.55373V6.55074V6.54775V6.54476V6.54177V6.53878V6.53579V6.5328V6.52981V6.52681V6.52382V6.52083V6.51784V6.51484V6.51185V6.50886V6.50587V6.50287V6.49988V6.49689V6.49389V6.4909V6.4879V6.48491V6.48191V6.47892V6.47592V6.47293V6.46993V6.46694V6.46394V6.46095V6.45795V6.45495V6.45196V6.44896V6.44596V6.44297V6.43997V6.43697V6.43397V6.43098V6.42798V6.42498V6.42198V6.41898V6.41599V6.41299V6.40999V6.40699V6.40399V6.40099V6.39799V6.39499V6.39199V6.38899V6.38599V6.38299V6.37999V6.37699V6.37399V6.37099V6.36799V6.36499V6.36199V6.35899V6.35598V6.35298V6.34998V6.34698V6.34398V6.34097V6.33797V6.33497V6.33197V6.32896V6.32596V6.32296V6.31995V6.31695V6.31395V6.31094V6.30794V6.30493V6.30193V6.29893V6.29592V6.29292V6.28991V6.28691V6.2839V6.2809V6.27789V6.27489V6.27188V6.26888V6.26587V6.26287V6.25986V6.25685V6.25385V6.25084V6.24783V6.24483V6.24182V6.23881V6.23581V6.2328V6.22979V6.22679V6.22378V6.22077V6.21776V6.21476V6.21175V6.20874V6.20573V6.20272V6.19972V6.19671V6.1937V6.19069V6.18768V6.18467V6.18166V6.17865V6.17565V6.17264V6.16963V6.16662V6.16361V6.1606V6.15759V6.15458V6.15157V6.14856V6.14555V6.14254V6.13953V6.13652V6.13351V6.1305V6.12749V6.12448V6.12147V6.11845V6.11544V6.11243V6.10942V6.10641V6.1034V6.10039V6.09738V6.09436V6.09135V6.08834V6.08533V6.08232V6.0793V6.07629V6.07328V6.07027V6.06726V6.06424V6.06123V6.05822V6.05521V6.05219V6.04918V6.04617V6.04315V6.04014V6.03713V6.03412V6.0311V6.02809V6.02508V6.02206V6.01905V6.01604V6.01302V6.01001V6.007V6.00398V6.00097V5.99795V5.99494V5.99193V5.98891V5.9859V5.98288V5.97987V5.97686V5.97384V5.97083V5.96781V5.9648V5.96178V5.95877V5.95575V5.95274V5.94973V5.94671V5.9437V5.94068V5.93767V5.93465V5.93164V5.92862V5.92561V5.92259V5.91958V5.91656V5.91355V5.91053V5.90752V5.9045V5.90149V5.89847V5.89545V5.89244V5.88942V5.88641V5.88339V5.88038V5.87736V5.87435V5.87133V5.86832V5.8653V5.86228V5.85927V5.85625V5.85324V5.85022V5.84721V5.84419V5.84117V5.83816V5.83514V5.83213V5.82911V5.82609V5.82308V5.82006V5.81705C7.84789 5.57364 7.89195 5.3624 8.00249 5.2081C8.11946 5.04484 8.2946 4.96754 8.50099 4.96628C8.7082 4.96502 8.88486 5.04164 9.00346 5.20389C9.11585 5.35764 9.1615 5.56867 9.1615 5.81103V5.81401V5.81699V5.81997V5.82296V5.82594V5.82892V5.8319V5.83488V5.83786V5.84084V5.84382V5.8468V5.84978V5.85276V5.85575V5.85873V5.86171V5.86469V5.86767V5.87065V5.87363V5.87661V5.87959V5.88258V5.88556V5.88854V5.89152V5.8945V5.89748V5.90047V5.90345V5.90643V5.90941V5.91239V5.91538V5.91836V5.92134V5.92432V5.9273V5.93029V5.93327V5.93625V5.93924V5.94222V5.9452V5.94818V5.95117V5.95415V5.95713V5.96012V5.9631V5.96608V5.96907V5.97205V5.97504V5.97802V5.981V5.98399V5.98697V5.98996V5.99294V5.99593V5.99891V6.0019V6.00488V6.00787V6.01085V6.01384V6.01682V6.01981V6.02279V6.02578V6.02877V6.03175V6.03474V6.03772V6.04071V6.0437V6.04669V6.04967V6.05266V6.05565V6.05863V6.06162V6.06461V6.0676V6.07059V6.07357V6.07656V6.07955V6.08254V6.08553V6.08852V6.09151V6.0945V6.09749V6.10048V6.10347V6.10646V6.10945V6.11244V6.11543V6.11842V6.12141V6.1244V6.1274V6.13039V6.13338V6.13637V6.13936V6.14236V6.14535V6.14834V6.15134V6.15433V6.15732V6.16032V6.16331V6.1663V6.1693V6.17229V6.17529V6.17828V6.18128V6.18428V6.18727V6.19027V6.19326V6.19626V6.19926V6.20225V6.20525V6.20825V6.21125V6.21424V6.21724V6.22024V6.22324V6.22624V6.22924V6.23224V6.23524V6.23824V6.24124V6.24424V6.24724V6.25024V6.25324V6.25624V6.25925V6.26225V6.26525V6.26825V6.27126V6.27426V6.27726V6.28027V6.28327V6.28628V6.28928V6.29229V6.29529V6.2983V6.3013V6.30431V6.30731V6.31032V6.31333V6.31634V6.31934V6.32235V6.32536V6.32837V6.33138V6.33439V6.3374V6.34041V6.34342V6.34643V6.34944V6.35245V6.35546V6.35847V6.36149V6.3645V6.36751V6.37052V6.37354V6.37655V6.37957V6.38258V6.3856V6.38861V6.39163V6.39464V6.39766V6.40067V6.40369V6.40671V6.40973V6.41275V6.41576V6.41878V6.4218V6.42482V6.42784V6.43086V6.43388V6.4369V6.43992V6.44295V6.44597V6.44899V6.45201V6.45504V6.45806V6.46109V6.46411V6.46713V6.47016V6.47319V6.47621V6.47924V6.48227V6.48529V6.48832V6.49135V6.49438V6.49741V6.50043V6.50346V6.50649V6.50953V6.51256V6.51559V6.51862V6.52165V6.52468V6.52772V6.53075V6.53379V6.53682V6.53985V6.54289V6.54593V6.54896V6.552V6.55504V6.55807V6.56111V6.56415V6.56719V6.57023V6.57327V6.57631V6.57935V6.58239V6.58543V6.58847V6.59151V6.59456V6.5976V6.60065V6.60369V6.60673V6.60978V6.61283V6.61587V6.61892V6.62197V6.62501V6.62806V6.63111V6.63416V6.63721V6.64026V6.64331V6.64636V6.64941V6.65246V6.65552V6.65857V6.66162V6.66468V6.66773V6.67079V6.67384V6.6769V6.67996V6.68301V6.68607V6.68913V6.69219V6.69525V6.69831V6.70137V6.70443V6.70749V6.71055V6.71362V6.71668V6.71974V6.72281V6.72587V6.72894V6.732V6.73507V6.73813V6.7412V6.74427V6.74734V6.75041V6.75348V6.75655V6.75962V6.76269V6.76576V6.76883V6.77191V6.77498V6.77805V6.78113V6.7842V6.78728V6.79036V6.79343V6.79651V6.79959V6.80267V6.80575V6.80883V6.81191V6.81499V6.81807V6.82115V6.82424V6.82732V6.8304V6.83349V6.83657V6.83966V6.84274V6.84583V6.84892V6.85201V6.8551V6.85819V6.86128V6.86437V6.86746V6.87055V6.87364V6.87674V6.87983V6.88293V6.88602V6.88912V6.89221V6.89531V6.89841V6.90151V6.90461V6.9077V6.9108V6.91391V6.91701V6.92011V6.92321V6.92632V6.92942V6.93253V6.93563V6.93874V6.94184V6.94495V6.94806V6.95117V6.95428V6.95739V6.9605V6.96361V6.96672V6.96984V6.97295V6.97606V6.97918V6.98229V6.98541V6.98853V6.99165V6.99476V6.99788V7.001V7.00412V7.00724V7.01037V7.01349V7.01661V7.01974V7.02286V7.02599V7.02911V7.03224V7.03537V7.03849V7.04162V7.04475V7.04788V7.05102V7.05415V7.05728V7.06041V7.06355V7.06668V7.06982V7.07295V7.07609V7.07923V7.08237V7.08551V7.08865V7.09179V7.09493V7.09807V7.10121V7.10436V7.1075V7.11065V7.11379V7.11694V7.12009V7.12324V7.12639V7.12953V7.13269V7.13584V7.13899V7.14214V7.1453V7.14845V7.15161V7.15476V7.15792V7.16108V7.16423V7.16739V7.17055V7.17371V7.17688V7.18004V7.1832V7.18637V7.18953V7.1927V7.19586V7.19903V7.2022V7.20537V7.20854V7.21171V7.21488V7.21805V7.22111L6.30698 8.53472ZM6.30698 8.53472C6.54308 8.53679 6.77976 8.53625 7.01542 8.53571C7.12213 8.53547 7.22862 8.53522 7.33477 8.53522H7.33606H7.33736H7.33865H7.33994H7.34124H7.34253H7.34383H7.34512H7.34642H7.34771H7.34901H7.3503H7.35159H7.35289H7.35418H7.35548H7.35677H7.35807H7.35936H7.36066H7.36195H7.36325H7.36454H7.36584H7.36713H7.36843H7.36972H7.37101H7.37231H7.3736H7.3749H7.37619H7.37749H7.37878H7.38008H7.38137H7.38267H7.38396H7.38526H7.38655H7.38785H7.38914H7.39044H7.39173H7.39303H7.39433H7.39562H7.39692H7.39821H7.39951H7.4008H7.4021H7.40339H7.40469H7.40598H7.40728H7.40857H7.40987H7.41116H7.41246H7.41376H7.41505H7.41635H7.41764H7.41894H7.42023H7.42153H7.42283H7.42412H7.42542H7.42671H7.42801H7.4293H7.4306H7.4319H7.43319H7.43449H7.43578H7.43708H7.43838H7.43967H7.44097H7.44226H7.44356H7.44486H7.44615H7.44745H7.44875H7.45004H7.45134H7.45264H7.45393H7.45523H7.45653H7.45782H7.45912H7.46041H7.46171H7.46301H7.46431H7.4656H7.4669H7.4682H7.46949H7.47079H7.47209H7.47338H7.47468H7.47598H7.47727H7.47857H7.47987H7.48117H7.48246H7.48376H7.48506H7.48636H7.48765H7.48895H7.49025H7.49155H7.49284H7.49414H7.49544H7.49674H7.49803H7.49933H7.50063H7.50193H7.50323H7.50452H7.50582H7.50712H7.50842H7.50972H7.51101H7.51231H7.51361H7.51491H7.51621H7.51751H7.5188H7.5201H7.5214H7.5227H7.524H7.5253H7.5266H7.5279H7.52919H7.53049H7.53179H7.53309H7.53439H7.53569H7.53699H7.53829H7.53959H7.54089H7.54219H7.54349H7.54478H7.54608H7.54738H7.54868H7.54998H7.55128H7.55258H7.55388H7.55518H7.55648H7.55778H7.55908H7.56038H7.56168H7.56298H7.56428H7.56558H7.56688H7.56818H7.56948H7.57079H7.57209H7.57339H7.57469H7.57599H7.57729H7.57859H7.57989H7.58119H7.58249H7.58379H7.5851H7.5864H7.5877H7.589H7.5903H7.5916H7.5929H7.5942H7.59551H7.59681H7.59811H7.59941H7.60071H7.60202H7.60332H7.60462H7.60592H7.60722H7.60853H7.60983H7.61113H7.61243H7.61374H7.61504H7.61634H7.61764H7.61895H7.62025H7.62155H7.62286H7.62416H7.62546H7.62677H7.62807H7.62937H7.63068H7.63198H7.63328H7.63459H7.63589H7.63719H7.6385H7.6398H7.6411H7.64241H7.64371H7.64502H7.64632H7.64763H7.64893H7.65023H7.65154H7.65284H7.65415H7.65545H7.65676H7.65806H7.65937H7.66067H7.66198H7.66328H7.66459H7.66589H7.6672H7.6685H7.66981H7.67111H7.67242H7.67373H7.67503H7.67634H7.67764H7.67895H7.68026H7.68156H7.68287H7.68418H7.68548H7.68679H7.68809H7.6894H7.69071H7.69201H7.69332H7.69463H7.69594H7.69724H7.69855H7.69986H7.70116H7.70247H7.70378H7.70509H7.7064H7.7077H7.70901H7.71032H7.71163H7.71294H7.71424H7.71555H7.71686H7.71817H7.71948H7.72079H7.72209H7.7234H7.72471H7.72602H7.72733H7.72864H7.72995H7.73126H7.73257H7.73388H7.73519H7.7365H7.73781H7.73912H7.74043H7.74174H7.74305H7.74436H7.74567H7.74698H7.74829H7.7496H7.75091H7.75222H7.75353H7.75484H7.75615H7.75746H7.75877H7.76009H7.7614H7.76271H7.76402H7.76533H7.76664H7.76795H7.76927H7.77058H7.77189H7.7732H7.77452H7.77583H7.77714H7.77845H7.77977H7.78108H7.78239H7.7837H7.78502H7.78633H7.78764H7.78896H7.79027H7.79158H7.7929H7.79421H7.79553H7.79684H7.79815H7.79947H7.80078H7.8021H7.80341H7.80472H7.80604H7.80735H7.80867H7.80998H7.8113H7.81261H7.81393H7.81524H7.81656H7.81788H7.81919H7.82051H7.82182H7.82314H7.82446H7.82577H7.82709H7.8284H7.82972H7.83104H7.83235H7.83367H7.83499H7.8363H7.83762H7.83894H7.84026H7.84157H7.84289H7.84421H7.84553H7.84684H7.84787L6.30698 8.53472ZM8.00451 7.34265C7.98891 7.35117 7.97847 7.35739 7.97111 7.36177C7.96027 7.36823 7.95609 7.37072 7.95192 7.37072L9.00488 5.81103C9.00488 5.35796 8.83156 5.1209 8.50194 5.12291C8.17283 5.12491 8.00451 5.35997 8.00451 5.81705V7.34265ZM8.00451 7.34265L7.95192 7.24627L7.95123 7.24501L7.9349 7.21509M8.00451 7.34265L7.9349 7.21509M7.9349 7.21509C7.94008 7.21448 7.94548 7.21413 7.95106 7.21409M7.9349 7.21509L7.95192 7.21409L7.95106 7.21409M7.95106 7.21409C7.94551 7.21412 7.93996 7.21415 7.93441 7.21418M7.95106 7.21409L7.93441 7.21418M7.93441 7.21418L7.92949 7.20517C7.92346 7.20846 7.91798 7.21152 7.91309 7.2143L7.93441 7.21418ZM9.77532 7.22111H9.77682H9.77532ZM9.77532 7.22111H9.77383M9.77532 7.22111H9.77383M9.77383 7.22111H9.77234M9.77383 7.22111H9.77234M9.77234 7.22111H9.77084M9.77234 7.22111H9.77084M9.77084 7.22111H9.76935M9.77084 7.22111H9.76935M9.76935 7.22111H9.76785M9.76935 7.22111H9.76785M9.76785 7.22111H9.76636M9.76785 7.22111H9.76636M9.76636 7.22111H9.76487M9.76636 7.22111H9.76487M9.76487 7.22111H9.76337M9.76487 7.22111H9.76337M9.76337 7.22111H9.76188M9.76337 7.22111H9.76188M9.76188 7.22111H9.76038M9.76188 7.22111H9.76038M9.76038 7.22111H9.75889M9.76038 7.22111H9.75889M9.75889 7.22111H9.7574M9.75889 7.22111H9.7574M9.7574 7.22111H9.7559M9.7574 7.22111H9.7559M9.7559 7.22111H9.75441M9.7559 7.22111H9.75441M9.75441 7.22111H9.75291M9.75441 7.22111H9.75291M9.75291 7.22111H9.75142M9.75291 7.22111H9.75142M9.75142 7.22111H9.74993M9.75142 7.22111H9.74993M9.74993 7.22111H9.74843M9.74993 7.22111H9.74843M9.74843 7.22111H9.74694M9.74843 7.22111H9.74694M9.74694 7.22111H9.74544M9.74694 7.22111H9.74544M9.74544 7.22111H9.74395M9.74544 7.22111H9.74395M9.74395 7.22111H9.74246M9.74395 7.22111H9.74246M9.74246 7.22111H9.74096M9.74246 7.22111H9.74096M9.74096 7.22111H9.73947M9.74096 7.22111H9.73947M9.73947 7.22111H9.73798M9.73947 7.22111H9.73798M9.73798 7.22111H9.73648M9.73798 7.22111H9.73648M9.73648 7.22111H9.73499M9.73648 7.22111H9.73499M9.73499 7.22111H9.73349M9.73499 7.22111H9.73349M9.73349 7.22111H9.732M9.73349 7.22111H9.732M9.732 7.22111H9.73051M9.732 7.22111H9.73051M9.73051 7.22111H9.72901M9.73051 7.22111H9.72901M9.72901 7.22111H9.72752M9.72901 7.22111H9.72752M9.72752 7.22111H9.72603M9.72752 7.22111H9.72603M9.72603 7.22111H9.72453M9.72603 7.22111H9.72453M9.72453 7.22111H9.72304M9.72453 7.22111H9.72304M9.72304 7.22111H9.72154M9.72304 7.22111H9.72154M9.72154 7.22111H9.72005M9.72154 7.22111H9.72005M9.72005 7.22111H9.71856M9.72005 7.22111H9.71856M9.71856 7.22111H9.71706M9.71856 7.22111H9.71706M9.71706 7.22111H9.71557M9.71706 7.22111H9.71557M9.71557 7.22111H9.71407M9.71557 7.22111H9.71407M9.71407 7.22111H9.71258M9.71407 7.22111H9.71258M9.71258 7.22111H9.71109M9.71258 7.22111H9.71109M9.71109 7.22111H9.70959M9.71109 7.22111H9.70959M9.70959 7.22111H9.7081M9.70959 7.22111H9.7081M9.7081 7.22111H9.70661M9.7081 7.22111H9.70661M9.70661 7.22111H9.70511M9.70661 7.22111H9.70511M9.70511 7.22111H9.70362M9.70511 7.22111H9.70362M9.70362 7.22111H9.70212M9.70362 7.22111H9.70212M9.70212 7.22111H9.70063M9.70212 7.22111H9.70063M9.70063 7.22111H9.69914M9.70063 7.22111H9.69914M9.69914 7.22111H9.69764M9.69914 7.22111H9.69764M9.69764 7.22111H9.69615M9.69764 7.22111H9.69615M9.69615 7.22111H9.69465M9.69615 7.22111H9.69465M9.69465 7.22111H9.69316M9.69465 7.22111H9.69316M9.69316 7.22111H9.69167M9.69316 7.22111H9.69167M9.69167 7.22111H9.69017M9.69167 7.22111H9.69017M9.69017 7.22111H9.68868M9.69017 7.22111H9.68868M9.68868 7.22111H9.68718M9.68868 7.22111H9.68718M9.68718 7.22111H9.68569M9.68718 7.22111H9.68569M9.68569 7.22111H9.6842M9.68569 7.22111H9.6842M9.6842 7.22111H9.6827M9.6842 7.22111H9.6827M9.6827 7.22111H9.68121M9.6827 7.22111H9.68121M9.68121 7.22111H9.67971M9.68121 7.22111H9.67971M9.67971 7.22111H9.67822M9.67971 7.22111H9.67822M9.67822 7.22111H9.67673M9.67822 7.22111H9.67673M9.67673 7.22111H9.67523M9.67673 7.22111H9.67523M9.67523 7.22111H9.67374M9.67523 7.22111H9.67374M9.67374 7.22111H9.67224M9.67374 7.22111H9.67224M9.67224 7.22111H9.67075M9.67224 7.22111H9.67075M9.67075 7.22111H9.66926M9.67075 7.22111H9.66926M9.66926 7.22111H9.66776M9.66926 7.22111H9.66776M9.66776 7.22111H9.66627M9.66776 7.22111H9.66627M9.66627 7.22111H9.66477M9.66627 7.22111H9.66477M9.66477 7.22111H9.66328M9.66477 7.22111H9.66328M9.66328 7.22111H9.66178M9.66328 7.22111H9.66178M9.66178 7.22111H9.66029M9.66178 7.22111H9.66029M9.66029 7.22111H9.6588M9.66029 7.22111H9.6588M9.6588 7.22111H9.6573M9.6588 7.22111H9.6573M9.6573 7.22111H9.65581M9.6573 7.22111H9.65581M9.65581 7.22111H9.65431M9.65581 7.22111H9.65431M9.65431 7.22111H9.65282M9.65431 7.22111H9.65282M9.65282 7.22111H9.65132M9.65282 7.22111H9.65132M9.65132 7.22111H9.64983M9.65132 7.22111H9.64983M9.64983 7.22111H9.64834M9.64983 7.22111H9.64834M9.64834 7.22111H9.64684M9.64834 7.22111H9.64684M9.64684 7.22111H9.64535M9.64684 7.22111H9.64535M9.64535 7.22111H9.64385M9.64535 7.22111H9.64385M9.64385 7.22111H9.64236M9.64385 7.22111H9.64236M9.64236 7.22111H9.64086M9.64236 7.22111H9.64086M9.64086 7.22111H9.63937M9.64086 7.22111H9.63937M9.63937 7.22111H9.63787M9.63937 7.22111H9.63787M9.63787 7.22111H9.63638M9.63787 7.22111H9.63638M9.63638 7.22111H9.63488M9.63638 7.22111H9.63488M9.63488 7.22111H9.63339M9.63488 7.22111H9.63339M9.63339 7.22111H9.6319M9.63339 7.22111H9.6319M9.6319 7.22111H9.6304M9.6319 7.22111H9.6304M9.6304 7.22111H9.62891M9.6304 7.22111H9.62891M9.62891 7.22111H9.62741M9.62891 7.22111H9.62741M9.62741 7.22111H9.62592M9.62741 7.22111H9.62592M9.62592 7.22111H9.62442M9.62592 7.22111H9.62442M9.62442 7.22111H9.62293M9.62442 7.22111H9.62293M9.62293 7.22111H9.62143M9.62293 7.22111H9.62143M9.62143 7.22111H9.61994M9.62143 7.22111H9.61994M9.61994 7.22111H9.61844M9.61994 7.22111H9.61844M9.61844 7.22111H9.61695M9.61844 7.22111H9.61695M9.61695 7.22111H9.61545M9.61695 7.22111H9.61545M9.61545 7.22111H9.61396M9.61545 7.22111H9.61396M9.61396 7.22111H9.61246M9.61396 7.22111H9.61246M9.61246 7.22111H9.61097M9.61246 7.22111H9.61097M9.61097 7.22111H9.60947M9.61097 7.22111H9.60947M9.60947 7.22111H9.60798M9.60947 7.22111H9.60798M9.60798 7.22111H9.60648M9.60798 7.22111H9.60648M9.60648 7.22111H9.60499M9.60648 7.22111H9.60499M9.60499 7.22111H9.60349M9.60499 7.22111H9.60349M9.60349 7.22111H9.602M9.60349 7.22111H9.602M9.602 7.22111H9.6005M9.602 7.22111H9.6005M9.6005 7.22111H9.59901M9.6005 7.22111H9.59901M9.59901 7.22111H9.59751M9.59901 7.22111H9.59751M9.59751 7.22111H9.59601M9.59751 7.22111H9.59601M9.59601 7.22111H9.59452M9.59601 7.22111H9.59452M9.59452 7.22111H9.59302M9.59452 7.22111H9.59302M9.59302 7.22111H9.59153M9.59302 7.22111H9.59153M9.59153 7.22111H9.59003M9.59153 7.22111H9.59003M9.59003 7.22111H9.58854M9.59003 7.22111H9.58854M9.58854 7.22111H9.58704M9.58854 7.22111H9.58704M9.58704 7.22111H9.58555M9.58704 7.22111H9.58555M9.58555 7.22111H9.58405M9.58555 7.22111H9.58405M9.58405 7.22111H9.58256M9.58405 7.22111H9.58256M9.58256 7.22111H9.58106M9.58256 7.22111H9.58106M9.58106 7.22111H9.57956M9.58106 7.22111H9.57956M9.57956 7.22111H9.57807M9.57956 7.22111H9.57807M9.57807 7.22111H9.57657M9.57807 7.22111H9.57657M9.57657 7.22111H9.57508M9.57657 7.22111H9.57508M9.57508 7.22111H9.57358M9.57508 7.22111H9.57358M9.57358 7.22111H9.57208M9.57358 7.22111H9.57208M9.57208 7.22111H9.57059M9.57208 7.22111H9.57059M9.57059 7.22111H9.56909M9.57059 7.22111H9.56909M9.56909 7.22111H9.5676M9.56909 7.22111H9.5676M9.5676 7.22111H9.5661M9.5676 7.22111H9.5661M9.5661 7.22111H9.5646M9.5661 7.22111H9.5646M9.5646 7.22111H9.56311M9.5646 7.22111H9.56311M9.56311 7.22111H9.56161M9.56311 7.22111H9.56161M9.56161 7.22111H9.56011M9.56161 7.22111H9.56011M9.56011 7.22111H9.55862M9.56011 7.22111H9.55862M9.55862 7.22111H9.55712M9.55862 7.22111H9.55712M9.55712 7.22111H9.55563M9.55712 7.22111H9.55563M9.55563 7.22111H9.55413M9.55563 7.22111H9.55413M9.55413 7.22111H9.55263M9.55413 7.22111H9.55263M9.55263 7.22111H9.55114M9.55263 7.22111H9.55114M9.55114 7.22111H9.54964M9.55114 7.22111H9.54964M9.54964 7.22111H9.54814M9.54964 7.22111H9.54814M9.54814 7.22111H9.54665M9.54814 7.22111H9.54665M9.54665 7.22111H9.54515M9.54665 7.22111H9.54515M9.54515 7.22111H9.54365M9.54515 7.22111H9.54365M9.54365 7.22111H9.54216M9.54365 7.22111H9.54216M9.54216 7.22111H9.54066M9.54216 7.22111H9.54066M9.54066 7.22111H9.53916M9.54066 7.22111H9.53916M9.53916 7.22111H9.53766M9.53916 7.22111H9.53766M9.53766 7.22111H9.53617M9.53766 7.22111H9.53617M9.53617 7.22111H9.53467M9.53617 7.22111H9.53467M9.53467 7.22111H9.53317M9.53467 7.22111H9.53317M9.53317 7.22111H9.53168M9.53317 7.22111H9.53168M9.53168 7.22111H9.53018M9.53168 7.22111H9.53018M9.53018 7.22111H9.52868M9.53018 7.22111H9.52868M9.52868 7.22111H9.52718M9.52868 7.22111H9.52718M9.52718 7.22111H9.52569M9.52718 7.22111H9.52569M9.52569 7.22111H9.52419M9.52569 7.22111H9.52419M9.52419 7.22111H9.52269M9.52419 7.22111H9.52269M9.52269 7.22111H9.52119M9.52269 7.22111H9.52119M9.52119 7.22111H9.5197M9.52119 7.22111H9.5197M9.5197 7.22111H9.5182M9.5197 7.22111H9.5182M9.5182 7.22111H9.5167M9.5182 7.22111H9.5167M9.5167 7.22111H9.5152M9.5167 7.22111H9.5152M9.5152 7.22111H9.51371M9.5152 7.22111H9.51371M9.51371 7.22111H9.51221M9.51371 7.22111H9.51221M9.51221 7.22111H9.51071M9.51221 7.22111H9.51071M9.51071 7.22111H9.50921M9.51071 7.22111H9.50921M9.50921 7.22111H9.50771M9.50921 7.22111H9.50771M9.50771 7.22111H9.50622M9.50771 7.22111H9.50622M9.50622 7.22111H9.50472M9.50622 7.22111H9.50472M9.50472 7.22111H9.50322M9.50472 7.22111H9.50322M9.50322 7.22111H9.50172M9.50322 7.22111H9.50172M9.50172 7.22111H9.50022M9.50172 7.22111H9.50022M9.50022 7.22111H9.49872M9.50022 7.22111H9.49872M9.49872 7.22111H9.49723M9.49872 7.22111H9.49723M9.49723 7.22111H9.49573M9.49723 7.22111H9.49573M9.49573 7.22111H9.49423M9.49573 7.22111H9.49423M9.49423 7.22111H9.49273M9.49423 7.22111H9.49273M9.49273 7.22111H9.49123M9.49273 7.22111H9.49123M9.49123 7.22111H9.48973M9.49123 7.22111H9.48973M9.48973 7.22111H9.48823M9.48973 7.22111H9.48823M9.48823 7.22111H9.48673M9.48823 7.22111H9.48673M9.48673 7.22111H9.48524M9.48673 7.22111H9.48524M9.48524 7.22111H9.48374M9.48524 7.22111H9.48374M9.48374 7.22111H9.48224M9.48374 7.22111H9.48224M9.48224 7.22111H9.48074M9.48224 7.22111H9.48074M9.48074 7.22111H9.47924M9.48074 7.22111H9.47924M9.47924 7.22111H9.47774M9.47924 7.22111H9.47774M9.47774 7.22111H9.47624M9.47774 7.22111H9.47624M9.47624 7.22111H9.47474M9.47624 7.22111H9.47474M9.47474 7.22111H9.47324M9.47474 7.22111H9.47324M9.47324 7.22111H9.47174M9.47324 7.22111H9.47174M9.47174 7.22111H9.47024M9.47174 7.22111H9.47024M9.47024 7.22111H9.46874M9.47024 7.22111H9.46874M9.46874 7.22111H9.46724M9.46874 7.22111H9.46724M9.46724 7.22111H9.46574M9.46724 7.22111H9.46574M9.46574 7.22111H9.46424M9.46574 7.22111H9.46424M9.46424 7.22111H9.46274M9.46424 7.22111H9.46274M9.46274 7.22111H9.46124M9.46274 7.22111H9.46124M9.46124 7.22111H9.45974M9.46124 7.22111H9.45974M9.45974 7.22111H9.45824M9.45974 7.22111H9.45824M9.45824 7.22111H9.45674M9.45824 7.22111H9.45674M9.45674 7.22111H9.45524M9.45674 7.22111H9.45524M9.45524 7.22111H9.45374M9.45524 7.22111H9.45374M9.45374 7.22111H9.45224M9.45374 7.22111H9.45224M9.45224 7.22111H9.45074M9.45224 7.22111H9.45074M9.45074 7.22111H9.44924M9.45074 7.22111H9.44924M9.44924 7.22111H9.44774M9.44924 7.22111H9.44774M9.44774 7.22111H9.44624M9.44774 7.22111H9.44624M9.44624 7.22111H9.44474M9.44624 7.22111H9.44474M9.44474 7.22111H9.44324M9.44474 7.22111H9.44324M9.44324 7.22111H9.44174M9.44324 7.22111H9.44174M9.44174 7.22111H9.44024M9.44174 7.22111H9.44024M9.44024 7.22111H9.43873M9.44024 7.22111H9.43873M9.43873 7.22111H9.43723M9.43873 7.22111H9.43723M9.43723 7.22111H9.43573M9.43723 7.22111H9.43573M9.43573 7.22111H9.43423M9.43573 7.22111H9.43423M9.43423 7.22111H9.43273M9.43423 7.22111H9.43273M9.43273 7.22111H9.43123M9.43273 7.22111H9.43123M9.43123 7.22111H9.42973M9.43123 7.22111H9.42973M9.42973 7.22111H9.42822M9.42973 7.22111H9.42822M9.42822 7.22111H9.42672M9.42822 7.22111H9.42672M9.42672 7.22111H9.42522M9.42672 7.22111H9.42522M9.42522 7.22111H9.42372M9.42522 7.22111H9.42372M9.42372 7.22111H9.42222M9.42372 7.22111H9.42222M9.42222 7.22111H9.42072M9.42222 7.22111H9.42072M9.42072 7.22111H9.41921M9.42072 7.22111H9.41921M9.41921 7.22111H9.41771M9.41921 7.22111H9.41771M9.41771 7.22111H9.41621M9.41771 7.22111H9.41621M9.41621 7.22111H9.41471M9.41621 7.22111H9.41471M9.41471 7.22111H9.4132M9.41471 7.22111H9.4132M9.4132 7.22111H9.4117M9.4132 7.22111H9.4117M9.4117 7.22111H9.4102M9.4117 7.22111H9.4102M9.4102 7.22111H9.4087M9.4102 7.22111H9.4087M9.4087 7.22111H9.40719M9.4087 7.22111H9.40719M9.40719 7.22111H9.40569M9.40719 7.22111H9.40569M9.40569 7.22111H9.40419M9.40569 7.22111H9.40419M9.40419 7.22111H9.40269M9.40419 7.22111H9.40269M9.40269 7.22111H9.40118M9.40269 7.22111H9.40118M9.40118 7.22111H9.39968M9.40118 7.22111H9.39968M9.39968 7.22111H9.39818M9.39968 7.22111H9.39818M9.39818 7.22111H9.39667M9.39818 7.22111H9.39667M9.39667 7.22111H9.39517M9.39667 7.22111H9.39517M9.39517 7.22111H9.39367M9.39517 7.22111H9.39367M9.39367 7.22111H9.39216M9.39367 7.22111H9.39216M9.39216 7.22111H9.39066M9.39216 7.22111H9.39066M9.39066 7.22111H9.38915M9.39066 7.22111H9.38915M9.38915 7.22111H9.38765M9.38915 7.22111H9.38765M9.38765 7.22111H9.38615M9.38765 7.22111H9.38615M9.38615 7.22111H9.38464M9.38615 7.22111H9.38464M9.38464 7.22111H9.38314M9.38464 7.22111H9.38314M9.38314 7.22111H9.38163M9.38314 7.22111H9.38163M9.38163 7.22111H9.38013M9.38163 7.22111H9.38013M9.38013 7.22111H9.37863M9.38013 7.22111H9.37863M9.37863 7.22111H9.37712M9.37863 7.22111H9.37712M9.37712 7.22111H9.37562M9.37712 7.22111H9.37562M9.37562 7.22111H9.37411M9.37562 7.22111H9.37411M9.37411 7.22111H9.37261M9.37411 7.22111H9.37261M9.37261 7.22111H9.3711M9.37261 7.22111H9.3711M9.3711 7.22111H9.3696M9.3711 7.22111H9.3696M9.3696 7.22111H9.36809M9.3696 7.22111H9.36809M9.36809 7.22111H9.36659M9.36809 7.22111H9.36659M9.36659 7.22111H9.36508M9.36659 7.22111H9.36508M9.36508 7.22111H9.36358M9.36508 7.22111H9.36358M9.36358 7.22111H9.36207M9.36358 7.22111H9.36207M9.36207 7.22111H9.36057M9.36207 7.22111H9.36057M9.36057 7.22111H9.35906M9.36057 7.22111H9.35906M9.35906 7.22111H9.35756M9.35906 7.22111H9.35756M9.35756 7.22111H9.35605M9.35756 7.22111H9.35605M9.35605 7.22111H9.35454M9.35605 7.22111H9.35454M9.35454 7.22111H9.35304M9.35454 7.22111H9.35304M9.35304 7.22111H9.35153M9.35304 7.22111H9.35153M9.35153 7.22111H9.35003M9.35153 7.22111H9.35003M9.35003 7.22111H9.34852M9.35003 7.22111H9.34852M9.34852 7.22111H9.34701M9.34852 7.22111H9.34701M9.34701 7.22111H9.34551M9.34701 7.22111H9.34551M9.34551 7.22111H9.344M9.34551 7.22111H9.344M9.344 7.22111H9.34249M9.344 7.22111H9.34249M9.34249 7.22111H9.34099M9.34249 7.22111H9.34099M9.34099 7.22111H9.33948M9.34099 7.22111H9.33948M9.33948 7.22111H9.33797M9.33948 7.22111H9.33797M9.33797 7.22111H9.33647M9.33797 7.22111H9.33647M9.33647 7.22111H9.33496M9.33647 7.22111H9.33496M9.33496 7.22111H9.33345M9.33496 7.22111H9.33345M9.33345 7.22111H9.33194M9.33345 7.22111H9.33194M9.33194 7.22111H9.33044M9.33194 7.22111H9.33044M9.33044 7.22111H9.32893M9.33044 7.22111H9.32893M9.32893 7.22111H9.32742M9.32893 7.22111H9.32742M9.32742 7.22111H9.32591M9.32742 7.22111H9.32591M9.32591 7.22111H9.32441M9.32591 7.22111H9.32441M9.32441 7.22111H9.3229M9.32441 7.22111H9.3229M9.3229 7.22111H9.32139M9.3229 7.22111H9.32139M9.32139 7.22111H9.31988M9.32139 7.22111H9.31988M9.31988 7.22111H9.31837M9.31988 7.22111H9.31837M9.31837 7.22111H9.31686M9.31837 7.22111H9.31686M9.31686 7.22111H9.31536M9.31686 7.22111H9.31536M9.31536 7.22111H9.31385M9.31536 7.22111H9.31385M9.31385 7.22111H9.31234M9.31385 7.22111H9.31234M9.31234 7.22111H9.31083M9.31234 7.22111H9.31083M9.31083 7.22111H9.30932M9.31083 7.22111H9.30932M9.30932 7.22111H9.30781M9.30932 7.22111H9.30781M9.30781 7.22111H9.3063M9.30781 7.22111H9.3063M9.3063 7.22111H9.30479M9.3063 7.22111H9.30479M9.30479 7.22111H9.30329M9.30479 7.22111H9.30329M9.30329 7.22111H9.30178M9.30329 7.22111H9.30178M9.30178 7.22111H9.30027M9.30178 7.22111H9.30027M9.30027 7.22111H9.29876M9.30027 7.22111H9.29876M9.29876 7.22111H9.29725M9.29876 7.22111H9.29725M9.29725 7.22111H9.29574M9.29725 7.22111H9.29574M9.29574 7.22111H9.29423M9.29574 7.22111H9.29423M9.29423 7.22111H9.29272M9.29423 7.22111H9.29272M9.29272 7.22111H9.29121M9.29272 7.22111H9.29121M9.29121 7.22111H9.2897M9.29121 7.22111H9.2897M9.2897 7.22111H9.28819M9.2897 7.22111H9.28819M9.28819 7.22111H9.28668M9.28819 7.22111H9.28668M9.28668 7.22111H9.28516M9.28668 7.22111H9.28516M9.28516 7.22111H9.28365M9.28516 7.22111H9.28365M9.28365 7.22111H9.28214M9.28365 7.22111H9.28214M9.28214 7.22111H9.28063M9.28214 7.22111H9.28063M9.28063 7.22111H9.27912M9.28063 7.22111H9.27912M9.27912 7.22111H9.27761M9.27912 7.22111H9.27761M9.27761 7.22111H9.2761M9.27761 7.22111H9.2761M9.2761 7.22111H9.27459M9.2761 7.22111H9.27459M9.27459 7.22111H9.27308M9.27459 7.22111H9.27308M9.27308 7.22111H9.27156M9.27308 7.22111H9.27156M9.27156 7.22111H9.27005M9.27156 7.22111H9.27005M9.27005 7.22111H9.26854M9.27005 7.22111H9.26854M9.26854 7.22111H9.26703M9.26854 7.22111H9.26703M9.26703 7.22111H9.26552M9.26703 7.22111H9.26552M9.26552 7.22111H9.264M9.26552 7.22111H9.264M9.264 7.22111H9.26249M9.264 7.22111H9.26249M9.26249 7.22111H9.26098M9.26249 7.22111H9.26098M9.26098 7.22111H9.25947M9.26098 7.22111H9.25947M9.25947 7.22111H9.25795M9.25947 7.22111H9.25795M9.25795 7.22111H9.25644M9.25795 7.22111H9.25644M9.25644 7.22111H9.25493M9.25644 7.22111H9.25493M9.25493 7.22111H9.25341M9.25493 7.22111H9.25341M9.25341 7.22111H9.2519M9.25341 7.22111H9.2519M9.2519 7.22111H9.25039M9.2519 7.22111H9.25039M9.25039 7.22111H9.24887M9.25039 7.22111H9.24887M9.24887 7.22111H9.24736M9.24887 7.22111H9.24736M9.24736 7.22111H9.24585M9.24736 7.22111H9.24585M9.24585 7.22111H9.24433M9.24585 7.22111H9.24433M9.24433 7.22111H9.24282M9.24433 7.22111H9.24282M9.24282 7.22111H9.2413M9.24282 7.22111H9.2413M9.2413 7.22111H9.23979M9.2413 7.22111H9.23979M9.23979 7.22111H9.23828M9.23979 7.22111H9.23828M9.23828 7.22111H9.23676M9.23828 7.22111H9.23676M9.23676 7.22111H9.23525M9.23676 7.22111H9.23525M9.23525 7.22111H9.23373M9.23525 7.22111H9.23373M9.23373 7.22111H9.23222M9.23373 7.22111H9.23222M9.23222 7.22111H9.2307M9.23222 7.22111H9.2307M9.2307 7.22111H9.22919M9.2307 7.22111H9.22919M9.22919 7.22111H9.22767M9.22919 7.22111H9.22767M9.22767 7.22111H9.22616M9.22767 7.22111H9.22616M9.22616 7.22111H9.22464M9.22616 7.22111H9.22464M9.22464 7.22111H9.22313M9.22464 7.22111H9.22313M9.22313 7.22111H9.22161M9.22313 7.22111H9.22161M9.22161 7.22111H9.22009M9.22161 7.22111H9.22009M9.22009 7.22111H9.21858M9.22009 7.22111H9.21858M9.21858 7.22111H9.21706M9.21858 7.22111H9.21706M9.21706 7.22111H9.21555M9.21706 7.22111H9.21555M9.21555 7.22111H9.21403M9.21555 7.22111H9.21403M9.21403 7.22111H9.21251M9.21403 7.22111H9.21251M9.21251 7.22111H9.211M9.21251 7.22111H9.211M9.211 7.22111H9.20948M9.211 7.22111H9.20948M9.20948 7.22111H9.20796M9.20948 7.22111H9.20796M9.20796 7.22111H9.20645M9.20796 7.22111H9.20645M9.20645 7.22111H9.20493M9.20645 7.22111H9.20493M9.20493 7.22111H9.20341M9.20493 7.22111H9.20341M9.20341 7.22111H9.20189M9.20341 7.22111H9.20189M9.20189 7.22111H9.20038M9.20189 7.22111H9.20038M9.20038 7.22111H9.19886H9.20038Z" fill="#8F95B2" stroke="#8F95B2" stroke-width="0.31325"/>
</svg>
