<svg width="22" height="22" viewBox="0 0 22 22" fill="none" xmlns="http://www.w3.org/2000/svg">
<path d="M0.698364 7.81054C0.791805 7.72762 0.874506 7.62289 0.981372 7.56506C1.35943 7.35995 1.74501 7.16848 2.13005 6.97646C2.38245 6.85045 2.54892 6.91046 2.66707 7.17176C2.86039 7.59834 3.0505 8.02656 3.23738 8.45642C3.33458 8.68008 3.27712 8.85136 3.08755 8.93701C2.89852 9.02265 2.73527 8.95119 2.63323 8.73354C2.54516 8.54534 2.46193 8.35441 2.32177 8.15694C2.14401 8.74008 1.94961 9.31832 1.7928 9.90692C1.45663 11.1703 1.58713 12.431 1.93995 13.6594C2.89852 16.9958 5.04498 19.187 8.27459 20.2911C9.23532 20.6195 10.2331 20.7461 11.247 20.7363C11.341 20.7352 11.4349 20.7303 11.5289 20.7336C11.7341 20.7412 11.8635 20.8694 11.8656 21.0614C11.8678 21.2523 11.74 21.3996 11.537 21.3958C11.001 21.3865 10.4608 21.398 9.92968 21.3358C7.98353 21.1094 6.23393 20.3735 4.71471 19.1167C2.60853 17.3749 1.37554 15.1329 1.00822 12.3879C0.81436 10.9401 1.11079 9.58561 1.6027 8.25022C1.63277 8.16785 1.66123 8.08493 1.70742 7.9551C1.54578 8.03311 1.41797 8.09366 1.29177 8.15694C0.991038 8.3075 0.887931 8.28349 0.698901 8.01565C0.698364 7.94692 0.698364 7.87873 0.698364 7.81054Z" fill="white"/>
<path d="M6.33857 14.1226C6.14793 13.6087 5.98091 13.1516 5.80477 12.6977C5.78705 12.6519 5.71348 12.6045 5.66354 12.6006C5.49008 12.5886 5.31501 12.5996 5.14048 12.5946C4.69422 12.5815 4.3704 12.2564 4.36074 11.8015C4.35322 11.4267 4.35322 11.0514 4.36181 10.6766C4.37255 10.225 4.7055 9.90258 5.1523 9.89767C5.35314 9.89548 5.55345 9.89712 5.7108 9.89712C5.91862 9.43071 6.11678 8.99376 6.30474 8.5519C6.32568 8.50281 6.30527 8.41007 6.26929 8.36643C6.17102 8.24642 6.05341 8.14278 5.94601 8.0304C5.63078 7.70201 5.61252 7.24269 5.92238 6.91103C6.18552 6.62955 6.46262 6.36007 6.74724 6.1015C7.0673 5.81074 7.50712 5.82711 7.82181 6.13095C7.97647 6.28042 8.11609 6.4468 8.23692 6.57827C8.75568 6.36334 9.2304 6.16696 9.73144 5.95967C9.73144 5.78729 9.72929 5.58381 9.73198 5.38034C9.73842 4.86266 10.0504 4.54135 10.5622 4.53317C10.9043 4.52772 11.2469 4.52826 11.589 4.53372C12.0336 4.54135 12.3413 4.84738 12.3666 5.30342C12.3789 5.52654 12.3043 5.80747 12.4112 5.95748C12.518 6.10695 12.8037 6.12277 13.0089 6.20351C13.1399 6.25533 13.2682 6.31479 13.3944 6.37752C13.5206 6.44026 13.6436 6.51063 13.8197 6.605C13.9411 6.46971 14.07 6.31479 14.2107 6.17187C14.5308 5.84675 14.999 5.83747 15.3266 6.15714C15.5876 6.41189 15.8416 6.67591 16.0854 6.94758C16.4044 7.30379 16.3867 7.75547 16.057 8.10186C15.9179 8.24806 15.6988 8.38007 15.6665 8.54863C15.637 8.70356 15.8185 8.89448 15.8905 9.07614C16.0102 9.37834 16.1171 9.68601 16.2374 10.0122C16.4345 10.0122 16.6482 10.0084 16.8619 10.0128C17.3265 10.0226 17.6481 10.3384 17.6583 10.807C17.6664 11.1818 17.6669 11.5571 17.6567 11.9313C17.6449 12.3661 17.3259 12.6852 16.9001 12.7048C16.6869 12.7147 16.4227 12.6459 16.275 12.7496C16.137 12.8467 16.1311 13.1287 16.05 13.3223C15.9501 13.5596 15.8395 13.7931 15.7197 14.0211C15.6692 14.1171 15.6719 14.1761 15.7519 14.2481C15.862 14.3473 15.963 14.4575 16.0666 14.5645C16.3851 14.8929 16.4092 15.3484 16.1015 15.6833C15.8362 15.9719 15.5543 16.2468 15.2627 16.5075C14.9496 16.7874 14.5044 16.7645 14.201 16.4759C14.0448 16.3275 13.9078 16.081 13.7327 16.0504C13.5609 16.0204 13.3552 16.2157 13.1581 16.2959C12.9224 16.3924 12.6834 16.4841 12.4391 16.5539C12.314 16.5894 12.2796 16.6456 12.285 16.7661C12.2925 16.9292 12.293 17.0934 12.2844 17.2565C12.2608 17.7262 11.9386 18.0421 11.4762 18.0388C11.074 18.0361 10.6707 18.0317 10.2695 18.0039C9.91993 17.9799 9.65518 17.6858 9.63424 17.3291C9.62403 17.1523 9.61866 16.974 9.63209 16.7978C9.64337 16.6505 9.57731 16.6085 9.4538 16.561C9.08541 16.4192 8.71862 16.2675 8.36419 16.093C8.22725 16.0253 8.15261 16.0335 8.06024 16.1442C7.97378 16.2479 7.87282 16.3395 7.7767 16.4345C7.46147 16.7465 7.01252 16.7705 6.68978 16.4655C6.40032 16.1917 6.12376 15.902 5.86277 15.6004C5.5905 15.2851 5.6195 14.8279 5.9111 14.5246C6.062 14.3708 6.22526 14.2295 6.33857 14.1226ZM10.9424 17.3705C11.0965 17.3705 11.2512 17.3662 11.4053 17.3716C11.5568 17.3776 11.625 17.322 11.6185 17.1572C11.6083 16.8987 11.6131 16.639 11.6169 16.3799C11.6201 16.1393 11.7023 16.0324 11.9375 15.9844C12.5169 15.8671 13.0502 15.6397 13.5502 15.3233C13.7585 15.1912 13.8879 15.212 14.0689 15.3925C14.2461 15.5693 14.4255 15.7444 14.5947 15.9288C14.7005 16.0439 14.7858 16.0499 14.8965 15.9364C15.114 15.7138 15.3357 15.4956 15.5624 15.2823C15.6665 15.1842 15.6612 15.1051 15.564 15.009C15.3857 14.8334 15.2101 14.655 15.0366 14.4745C14.8691 14.3004 14.8497 14.1635 14.9776 13.9639C15.2987 13.4614 15.5258 12.9209 15.6569 12.3366C15.7068 12.113 15.818 12.0295 16.0425 12.0262C16.2975 12.0224 16.5526 12.0213 16.8077 12.0268C16.9457 12.03 17.0026 11.9739 17.0005 11.8342C16.9962 11.5276 16.993 11.2205 17.0021 10.9139C17.0075 10.7323 16.9323 10.6734 16.7615 10.6788C16.4935 10.6876 16.2245 10.681 15.956 10.6799C15.7584 10.6794 15.6397 10.5735 15.6053 10.3815C15.4979 9.78311 15.2654 9.2376 14.9512 8.72319C14.8229 8.51263 14.8379 8.38662 15.006 8.21206C15.1891 8.02167 15.3733 7.83293 15.5624 7.64909C15.6617 7.55254 15.6633 7.47235 15.5661 7.37307C15.3481 7.15105 15.1322 6.92685 14.9233 6.69555C14.8132 6.5739 14.7278 6.587 14.6231 6.69883C14.4566 6.87666 14.2837 7.04849 14.1108 7.21978C13.9363 7.39271 13.8112 7.41071 13.6092 7.27761C13.1205 6.95467 12.5921 6.73101 12.0266 6.593C11.7716 6.53081 11.6991 6.43153 11.6975 6.16041C11.6958 5.9013 11.6926 5.64218 11.6985 5.38307C11.7018 5.25215 11.6534 5.19814 11.5229 5.20032C11.2141 5.20523 10.9054 5.2036 10.5966 5.20087C10.4677 5.19978 10.3957 5.24014 10.3995 5.38907C10.4065 5.66837 10.4043 5.94821 10.4006 6.22751C10.3973 6.45389 10.3044 6.57718 10.0929 6.617C9.51072 6.72555 8.97854 6.95576 8.47804 7.27106C8.25357 7.41289 8.13489 7.39543 7.94317 7.20396C7.76596 7.02722 7.58767 6.85102 7.4169 6.66828C7.31916 6.56409 7.23646 6.54827 7.12959 6.65628C6.90619 6.88266 6.67796 7.10414 6.44866 7.32343C6.3536 7.41398 6.35629 7.4909 6.44812 7.58145C6.62158 7.7522 6.79127 7.92676 6.96151 8.10132C7.15537 8.30043 7.17148 8.4308 7.02595 8.66101C6.7177 9.14651 6.49645 9.66801 6.37079 10.2326C6.31333 10.4906 6.21237 10.5692 5.94601 10.5725C5.69791 10.5757 5.44927 10.5752 5.20117 10.573C5.07604 10.5719 5.01751 10.6248 5.01912 10.7563C5.02288 11.0765 5.02395 11.3973 5.01858 11.7175C5.0159 11.8702 5.0841 11.9193 5.22694 11.9155C5.48203 11.9084 5.73711 11.9106 5.99219 11.9149C6.23707 11.9188 6.33964 11.9979 6.38636 12.2357C6.50236 12.8243 6.72683 13.366 7.03884 13.8733C7.16987 14.0866 7.15054 14.217 6.97278 14.4003C6.79879 14.5803 6.62587 14.7619 6.44382 14.9332C6.33105 15.0396 6.32138 15.1258 6.43469 15.2393C6.65487 15.4591 6.86968 15.6849 7.08019 15.914C7.17578 16.0182 7.25525 16.016 7.35031 15.9173C7.52376 15.7368 7.6999 15.5589 7.87766 15.3827C8.04789 15.2136 8.1859 15.1923 8.37977 15.32C8.87436 15.6457 9.40708 15.8753 9.98222 16.0084C10.2131 16.0619 10.2862 16.1682 10.2883 16.4181C10.2905 16.6701 10.2921 16.9227 10.2878 17.1747C10.2851 17.3144 10.3431 17.3744 10.48 17.3705C10.6336 17.3673 10.7877 17.3705 10.9424 17.3705Z" fill="white"/>
<path d="M19.0763 5.64766C18.5747 4.99305 18.0312 4.45027 17.4276 3.97132C15.8891 2.74939 14.1604 1.95568 12.2159 1.73311C9.55925 1.42818 7.1604 2.12479 5.08053 3.84313C4.55909 4.27408 4.11766 4.80703 3.64992 5.3029C3.51567 5.44527 3.38517 5.53801 3.19507 5.45127C2.9808 5.35363 2.95019 5.10597 3.12311 4.88504C3.63059 4.23644 4.20305 3.65384 4.8523 3.15143C6.97781 1.50727 9.38204 0.770843 12.0354 1.03759C14.8961 1.32508 17.2858 2.62174 19.2277 4.77158C19.2707 4.81958 19.3147 4.86649 19.3899 4.94832C19.3899 4.78412 19.3861 4.66411 19.3909 4.54465C19.3995 4.33081 19.5392 4.18243 19.725 4.18298C19.9038 4.18352 20.0499 4.31881 20.0552 4.5261C20.0676 5.00996 20.0708 5.49382 20.066 5.97769C20.0638 6.18116 19.9097 6.32463 19.6928 6.32736C19.1966 6.33445 18.6998 6.33445 18.2031 6.32736C17.9727 6.32408 17.8368 6.17952 17.8433 5.9755C17.8497 5.78076 17.985 5.65366 18.2068 5.64929C18.4812 5.64384 18.7551 5.64766 19.0763 5.64766Z" fill="white"/>
<path d="M14.6047 20.7003C14.7884 20.7848 14.9543 20.8563 15.1159 20.9359C15.3152 21.0336 15.3796 21.2011 15.2969 21.3876C15.2158 21.5704 15.0445 21.6364 14.8431 21.5486C14.4184 21.3631 13.9952 21.1738 13.5742 20.9801C13.3379 20.8716 13.2734 20.6648 13.4109 20.4444C13.659 20.0473 13.9125 19.6546 14.1697 19.2634C14.2884 19.0829 14.4817 19.0381 14.6401 19.1396C14.8082 19.2471 14.8399 19.438 14.7191 19.6404C14.66 19.7391 14.5961 19.8346 14.5553 19.9671C14.739 19.8809 14.9258 19.8008 15.1057 19.7069C17.5014 18.4561 19.2408 16.5954 20.165 14.0048C20.869 12.0311 20.7911 10.0482 20.1301 8.07567C20.1021 7.99221 20.0683 7.91038 20.0404 7.82638C19.9631 7.59235 20.035 7.40688 20.2273 7.3376C20.4082 7.27269 20.5914 7.36597 20.6622 7.58908C20.8083 8.0484 20.9775 8.50498 21.0704 8.9763C21.9291 13.3392 20.3551 16.7197 16.9654 19.3491C16.6099 19.6246 16.219 19.8575 15.828 20.0806C15.4387 20.3026 15.0284 20.4875 14.6047 20.7003Z" fill="white"/>
<path d="M8.01123 11.31C8.0209 9.65981 9.38975 8.2955 11.0191 8.32223C11.1243 8.32387 11.2328 8.34514 11.3332 8.37787C11.4712 8.4226 11.533 8.53552 11.5249 8.67954C11.5169 8.82246 11.4465 8.93538 11.3031 8.95829C11.0856 8.9932 10.8633 8.99866 10.6453 9.03193C9.47782 9.2114 8.61484 10.2642 8.67928 11.424C8.74587 12.6235 9.72539 13.5804 10.9202 13.6278C12.6688 13.6976 13.8996 11.9133 13.129 10.2964C13.0232 10.0749 13.0801 9.87637 13.2611 9.79291C13.4474 9.70672 13.6188 9.78746 13.7315 10.0138C14.5763 11.7065 13.5656 13.8122 11.7075 14.2306C9.98316 14.6184 8.35331 13.5176 8.0499 11.7567C8.02466 11.6105 8.02358 11.4594 8.01123 11.31Z" fill="white"/>
<path d="M12.6018 9.58126C12.3805 9.41543 12.1695 9.29323 12.0121 9.12031C11.9568 9.05976 11.9928 8.84428 12.0599 8.75918C12.1195 8.68336 12.2957 8.63972 12.3934 8.67081C12.554 8.72154 12.7027 8.83119 12.8375 8.94029C12.953 9.03357 12.9825 9.18359 12.8987 9.3096C12.8337 9.4067 12.7242 9.47271 12.6018 9.58126Z" fill="white"/>
</svg>
