<svg width="22" height="20" viewBox="0 0 22 20" fill="none" xmlns="http://www.w3.org/2000/svg">
<path d="M8.21011 19.9647C6.8753 19.9647 5.54049 19.9684 4.20629 19.9628C3.6566 19.9603 3.11903 19.8708 2.60816 19.6565C1.57247 19.2211 0.974844 18.4133 0.798286 17.311C0.503414 15.4718 0.849251 13.7742 2.04997 12.3229C2.86967 11.3317 3.96481 10.8327 5.20679 10.661C5.65577 10.5992 6.11325 10.5795 6.56708 10.5789C7.96985 10.5782 9.37382 10.5572 10.7748 10.6147C13.3139 10.7197 15.2373 12.51 15.6389 15.0748C15.7554 15.8189 15.7906 16.5631 15.6468 17.3073C15.3568 18.8135 14.3345 19.7781 12.8261 19.9109C12.1253 19.9727 11.4179 19.9566 10.7129 19.9634C9.87862 19.9714 9.04437 19.9653 8.21011 19.9653C8.21011 19.9659 8.21011 19.9653 8.21011 19.9647ZM8.22285 18.4843C9.48121 18.4843 10.7396 18.4868 11.9979 18.4819C12.2473 18.4806 12.4985 18.4664 12.7454 18.4331C13.5942 18.3176 14.0936 17.8235 14.2313 16.9608C14.2689 16.7261 14.275 16.4859 14.2914 16.2475C14.4479 13.9335 12.6477 12.0147 10.3719 12.045C8.94729 12.0641 7.52208 12.045 6.09687 12.0505C4.49874 12.0573 3.30287 12.7731 2.55295 14.2108C2.06575 15.1458 2.05058 16.1518 2.25869 17.164C2.39641 17.8353 2.82901 18.2416 3.47943 18.3837C3.78037 18.4498 4.09465 18.4769 4.40287 18.4794C5.6758 18.4899 6.94932 18.4843 8.22285 18.4843Z" fill="white"/>
<path d="M8.21668 9.09174C5.92445 9.07259 4.08545 7.1884 4.10911 4.88302C4.13278 2.527 5.9736 0.684791 8.28888 0.698378C10.5411 0.711964 12.3831 2.64001 12.357 4.95712C12.3309 7.24459 10.4622 9.11088 8.21668 9.09174ZM8.20394 7.60834C9.68558 7.62131 10.8893 6.41829 10.9009 4.91204C10.9124 3.43976 9.71895 2.19721 8.27735 2.18116C6.77994 2.16448 5.57315 3.36565 5.56284 4.88302C5.55313 6.38 6.73019 7.59537 8.20394 7.60834Z" fill="white"/>
<path d="M16.8205 10.367C17.3975 10.3257 18.1031 10.3572 18.7881 10.6098C20.51 11.2446 21.6555 12.9695 21.5706 14.8265C21.553 15.2168 21.5639 15.6201 21.4674 15.9925C21.1337 17.2795 19.936 18.1033 18.6334 17.9959C18.3998 17.9767 18.1638 17.9909 17.929 17.9847C17.5055 17.9742 17.1948 17.6753 17.1845 17.2727C17.1736 16.854 17.4709 16.531 17.9023 16.5075C18.1213 16.4958 18.3422 16.5088 18.5618 16.5026C18.728 16.4983 18.8967 16.497 19.0599 16.468C19.6879 16.3556 19.9858 16.0672 20.0768 15.4299C20.2248 14.3954 20.0471 13.4438 19.285 12.6786C18.6874 12.0783 17.9617 11.8103 17.1214 11.8412C16.6294 11.8591 16.1361 11.8554 15.644 11.8467C15.1865 11.8387 14.8583 11.5052 14.8704 11.0834C14.8826 10.6629 15.2023 10.3708 15.6586 10.3677C15.9996 10.3652 16.3406 10.367 16.8205 10.367Z" fill="white"/>
<path d="M15.4836 2.67835C17.2892 2.67959 18.7678 4.02959 18.9116 5.7489C19.0657 7.58863 17.8692 9.19369 16.1055 9.48457C15.0746 9.6544 14.1524 9.38267 13.3588 8.68667C12.999 8.37109 12.9547 7.93262 13.2356 7.60407C13.5129 7.28047 13.9528 7.26688 14.3089 7.57072C15.4587 8.5508 17.166 7.94991 17.4336 6.45725C17.5659 5.7174 17.3371 5.07575 16.7595 4.59899C16.1916 4.13025 15.5479 4.03638 14.8574 4.29514C14.7306 4.3427 14.6008 4.39766 14.4685 4.41001C14.1221 4.44212 13.823 4.22412 13.7259 3.89187C13.627 3.55221 13.7671 3.19217 14.082 3.02666C14.5413 2.78704 15.0316 2.66724 15.4836 2.67835Z" fill="white"/>
</svg>
