<svg width="22" height="14" viewBox="0 0 22 14" fill="none" xmlns="http://www.w3.org/2000/svg">
<g clip-path="url(#clip0_639_18142)">
<path d="M15.5144 5.78715C12.5825 5.78715 9.68102 5.78715 6.7593 5.78715C6.7593 5.7014 6.7593 5.62581 6.7593 5.55021C6.7593 4.27413 6.76266 2.99748 6.75705 1.72139C6.75425 1.16346 6.4091 0.674914 5.90063 0.476337C5.39721 0.280017 4.80568 0.391716 4.45323 0.801282C4.27196 1.01227 4.16084 1.28419 4.034 1.50138C3.77416 1.47317 3.4812 1.38855 3.20283 1.42184C2.51758 1.5042 2.05176 2.06665 2.04727 2.76336C2.0411 3.69419 2.04559 4.62502 2.04559 5.55585C2.04559 5.63201 2.04559 5.70817 2.04559 5.78095C1.18131 5.91634 0.687992 6.43478 0.698656 7.17719C0.708758 7.89309 1.22901 8.42112 2.04503 8.5159C2.04503 8.58641 2.04503 8.66088 2.04503 8.73535C2.04503 9.61653 2.08039 10.5 2.03605 11.3795C1.98105 12.4779 3.01931 13.2535 4.05813 12.7379C4.07497 12.7915 4.09349 12.8429 4.1064 12.8953C4.27252 13.5458 4.88762 13.983 5.54144 13.9153C6.22109 13.8442 6.75088 13.2834 6.75537 12.5958C6.76435 11.3264 6.75874 10.0571 6.75874 8.78781C6.75874 8.70376 6.75874 8.6197 6.75874 8.52098C9.67597 8.52098 12.582 8.52098 15.5138 8.52098C15.5138 8.59657 15.5138 8.67104 15.5138 8.74607C15.5138 10.0222 15.5104 11.2988 15.5155 12.5749C15.5177 13.1746 15.9027 13.6857 16.4628 13.86C17.0246 14.0349 17.6392 13.8295 17.9635 13.3353C18.0769 13.1627 18.1415 12.9579 18.215 12.7972C18.4905 12.8287 18.7812 12.9151 19.0596 12.8846C19.751 12.8084 20.2225 12.2404 20.227 11.5312C20.2326 10.6077 20.2286 9.68367 20.2286 8.76017C20.2286 8.68345 20.2286 8.60672 20.2286 8.51703C20.6608 8.48205 21.025 8.32804 21.2893 7.98335C21.4897 7.72215 21.5846 7.42654 21.5739 7.09708C21.5503 6.39529 21.0497 5.90054 20.2286 5.78489C20.2286 5.71212 20.2286 5.63596 20.2286 5.5598C20.2286 4.66451 20.2073 3.76809 20.2342 2.87337C20.269 1.72421 19.1365 1.08053 18.2593 1.55328C18.2492 1.55892 18.2335 1.55384 18.2066 1.55384C18.1948 1.5121 18.1802 1.46697 18.1684 1.42071C18.0006 0.755587 17.3889 0.318378 16.7232 0.388896C16.038 0.46167 15.5189 1.03258 15.5161 1.73663C15.5104 3.00594 15.5144 4.27526 15.5144 5.54457C15.5144 5.62017 15.5144 5.69689 15.5144 5.78715ZM4.7389 7.16309C4.7389 6.35242 4.7389 5.54119 4.7389 4.73052C4.7389 3.7365 4.73665 2.74192 4.74058 1.74791C4.74226 1.38855 4.99538 1.10423 5.33323 1.06304C5.67053 1.02186 5.99323 1.24921 6.06731 1.59051C6.08808 1.68529 6.08527 1.78683 6.08527 1.885C6.08583 5.3962 6.08583 8.90741 6.08583 12.4192C6.08583 12.4897 6.09088 12.5613 6.0819 12.6307C6.04598 12.9049 5.90231 13.1029 5.64303 13.2011C5.18451 13.3743 4.74002 13.038 4.73946 12.5145C4.73777 10.7307 4.7389 8.9469 4.7389 7.16309ZM16.1878 7.17324C16.1878 5.41031 16.1878 3.64793 16.1878 1.885C16.1878 1.81448 16.1845 1.7434 16.1912 1.67344C16.2209 1.35527 16.4791 1.09463 16.7928 1.06191C17.1015 1.03032 17.4006 1.21875 17.4927 1.52056C17.5269 1.63226 17.5325 1.75581 17.5331 1.87428C17.5353 5.39282 17.5348 8.9108 17.5348 12.4293C17.5348 12.4925 17.5387 12.5568 17.5314 12.6195C17.4994 12.8948 17.358 13.0945 17.1009 13.1966C16.6464 13.3777 16.189 13.0414 16.1884 12.5241C16.1862 10.7409 16.1878 8.95706 16.1878 7.17324ZM18.2082 7.17324C18.2082 6.57413 18.2082 5.97445 18.2082 5.37533C18.2082 4.50091 18.2049 3.6265 18.2105 2.75264C18.2127 2.39667 18.4754 2.11291 18.8138 2.07793C19.1522 2.04295 19.4704 2.27594 19.54 2.61668C19.558 2.70525 19.5552 2.7989 19.5552 2.89029C19.5557 5.73187 19.5557 8.57344 19.5557 11.4144C19.5557 11.4776 19.5597 11.5419 19.5524 11.6046C19.5209 11.8804 19.3789 12.0796 19.1219 12.1817C18.6673 12.3628 18.2105 12.0265 18.2094 11.5087C18.2066 10.0639 18.2082 8.61857 18.2082 7.17324ZM2.7185 7.16196C2.7185 6.98595 2.7185 6.80937 2.7185 6.63336C2.7185 5.34317 2.71625 4.05299 2.72018 2.7628C2.7213 2.404 2.97722 2.11911 3.31451 2.07906C3.65069 2.03901 3.97395 2.26748 4.04747 2.60822C4.06824 2.703 4.06487 2.80454 4.06487 2.9027C4.06543 5.56093 4.06543 8.2186 4.06543 10.8768C4.06543 11.1025 4.06936 11.3281 4.06375 11.5538C4.05701 11.8488 3.88415 12.0909 3.6215 12.1873C3.16972 12.3532 2.72074 12.0254 2.71962 11.5199C2.71625 10.0667 2.7185 8.61406 2.7185 7.16196ZM6.76884 6.49007C9.69225 6.49007 12.5977 6.49007 15.497 6.49007C15.497 6.9442 15.497 7.38367 15.497 7.81806C12.5792 7.81806 9.67878 7.81806 6.76884 7.81806C6.76884 7.37239 6.76884 6.938 6.76884 6.49007ZM2.03549 6.48386C2.03549 6.93856 2.03549 7.37803 2.03549 7.81693C1.63477 7.83385 1.37212 7.46096 1.371 7.16535C1.36932 6.79583 1.6359 6.51207 2.03549 6.48386ZM20.2382 6.48104C20.6535 6.52448 20.9105 6.80937 20.9021 7.18001C20.8959 7.44854 20.6451 7.83498 20.2382 7.81749C20.2382 7.37577 20.2382 6.93405 20.2382 6.48104Z" fill="white"/>
</g>
<defs>
<clipPath id="clip0_639_18142">
<rect width="20.8758" height="13.5411" fill="white" transform="matrix(1 0 0 -1 0.698364 13.922)"/>
</clipPath>
</defs>
</svg>
