<svg width="24" height="22" viewBox="0 0 24 22" fill="none" xmlns="http://www.w3.org/2000/svg">
<path d="M11.9746 16.8106C10.8313 16.8106 9.68699 16.8126 8.54371 16.8096C7.25147 16.8066 6.59227 16.0366 6.81469 14.7936C7.23638 12.4378 9.27939 10.693 11.8065 10.5321C14.1162 10.385 16.3917 11.9678 17.073 14.2014C17.1455 14.4379 17.1988 14.6813 17.2421 14.9248C17.4273 15.973 16.7832 16.7649 15.7073 16.8066C15.3058 16.8225 14.9032 16.8106 14.5007 16.8106C13.6583 16.8106 12.8169 16.8106 11.9746 16.8106Z" fill="white"/>
<path d="M20.8992 8.10774C20.8217 8.33129 20.7764 8.49921 20.706 8.65719C20.5862 8.92348 20.3628 9.01687 20.086 8.94434C19.8002 8.86883 19.6493 8.64925 19.7217 8.37899C19.9099 7.67254 20.1172 6.96908 20.3598 6.27952C20.4564 6.00529 20.7311 5.89301 21.017 6.02516C21.6752 6.33119 22.3293 6.64914 22.9724 6.98696C23.2421 7.12905 23.3106 7.39334 23.1677 7.66161C23.0258 7.9269 22.7832 8.00937 22.4944 7.89511C22.3112 7.82257 22.1361 7.73216 21.9559 7.64869C22.0989 8.38097 22.279 9.08643 22.3686 9.8038C23.0076 14.9606 19.5114 19.8808 14.3706 20.9937C10.7355 21.7806 7.53004 20.8814 4.78355 18.3954C4.56012 18.1937 4.42224 17.9741 4.56214 17.6761C4.71813 17.3452 5.11164 17.3253 5.45281 17.5807C6.16132 18.1112 6.83663 18.7104 7.61156 19.1257C13.3652 22.2118 20.5359 18.5196 21.3159 12.1C21.4719 10.8123 21.3672 9.54944 20.9948 8.30745C20.9777 8.26274 20.9526 8.22101 20.8992 8.10774Z" fill="white"/>
<path d="M3.09071 13.8169C3.17626 13.5605 3.21551 13.4065 3.27891 13.2634C3.40371 12.9813 3.63921 12.8759 3.92704 12.9654C4.21789 13.0558 4.35376 13.2833 4.27123 13.5774C4.08807 14.2342 3.89383 14.889 3.68148 15.5368C3.56876 15.8816 3.26281 16.0078 2.92566 15.8498C2.30169 15.5587 1.68375 15.2536 1.07185 14.9367C0.792069 14.7916 0.677338 14.5442 0.827293 14.2481C0.973223 13.96 1.22181 13.8795 1.52474 14.0057C1.70488 14.0802 1.87899 14.1696 2.05914 14.2541C1.92026 13.5466 1.75219 12.875 1.6606 12.1933C1.07185 7.78179 3.60096 3.37321 7.73631 1.57381C11.6613 -0.133187 16.0613 0.601079 19.1822 3.49939C19.3302 3.63651 19.4489 3.86901 19.459 4.06376C19.465 4.1959 19.2728 4.43039 19.14 4.45325C18.9508 4.48603 18.7012 4.4145 18.5361 4.30222C17.8236 3.81933 17.1795 3.22119 16.4267 2.81779C10.669 -0.261361 3.54561 3.36526 2.71633 9.77196C2.54322 11.1073 2.6489 12.4179 3.09071 13.8169Z" fill="white"/>
<path d="M11.9948 10.2101C10.3906 10.2052 9.07726 8.89662 9.08229 7.30985C9.08732 5.72606 10.4037 4.42544 12.0109 4.4165C13.6283 4.40656 14.9668 5.72705 14.9587 7.32475C14.9497 8.93537 13.6353 10.2161 11.9948 10.2101Z" fill="white"/>
</svg>
