<svg width="20" height="20" viewBox="0 0 20 20" fill="none" xmlns="http://www.w3.org/2000/svg">
<path d="M7.86095 13.6495H12.6784M3.04346 11.7226V9.73946C3.04346 8.81714 3.04346 8.35599 3.16233 7.9313C3.26763 7.5551 3.44068 7.20127 3.67299 6.88719C3.93523 6.53262 4.29925 6.2495 5.02728 5.68325L7.11486 4.05958C8.2432 3.18198 8.80737 2.74318 9.43034 2.57451C9.98001 2.42568 10.5594 2.42568 11.1091 2.57451C11.732 2.74318 12.2962 3.18199 13.4245 4.05958L15.5121 5.68325C16.2401 6.2495 16.6042 6.53262 16.8664 6.88719C17.0987 7.20127 17.2718 7.5551 17.3771 7.9313C17.4959 8.35599 17.4959 8.81714 17.4959 9.73946V11.7226C17.4959 13.5213 17.4959 14.4206 17.1459 15.1076C16.838 15.7119 16.3466 16.2032 15.7423 16.5112C15.0553 16.8612 14.156 16.8612 12.3573 16.8612H8.18211C6.38342 16.8612 5.48407 16.8612 4.79705 16.5112C4.19274 16.2032 3.70142 15.7119 3.39351 15.1076C3.04346 14.4206 3.04346 13.5213 3.04346 11.7226Z" stroke="white" strokeWidth="1.60583" stroke-linecap="round" stroke-linejoin="round"/>
</svg>
