<svg width="17" height="19" viewBox="0 0 17 19" fill="none" xmlns="http://www.w3.org/2000/svg">
<path d="M2.93241 18.9817C2.80699 18.952 2.68104 18.9248 2.55666 18.8927C1.38325 18.5915 0.581902 17.6196 0.577703 16.4755C0.571931 14.9373 0.576129 13.3997 0.576129 11.8615C0.576129 9.70359 0.58505 7.54521 0.572456 5.38731C0.566158 4.28647 0.997531 3.39578 1.9264 2.70308C2.6569 2.15825 3.3685 1.59202 4.09061 1.03747C4.73032 0.546151 5.46764 0.301466 6.29942 0.301466C8.85722 0.301952 11.4145 0.300007 13.9723 0.302439C15.5078 0.303898 16.6991 1.39355 16.7006 2.81545C16.7059 7.36863 16.7054 11.9218 16.7006 16.475C16.6991 17.7261 15.7655 18.7326 14.4341 18.9491C14.4037 18.9539 14.3753 18.9705 14.3459 18.9817C10.5418 18.9817 6.73709 18.9817 2.93241 18.9817ZM15.354 9.64619C15.354 8.51519 15.354 7.38468 15.354 6.25368C15.354 5.13484 15.3561 4.01649 15.3535 2.89766C15.3514 2.07166 14.791 1.55019 13.9051 1.54921C11.3867 1.54629 8.86772 1.54581 6.34928 1.54289C5.83079 1.5424 5.3716 1.68785 4.97067 1.99432C4.19661 2.58633 3.41888 3.17396 2.64745 3.7684C2.24232 4.08022 1.98465 4.48154 1.94477 4.96994C1.90908 5.41115 1.91748 5.85625 1.91748 6.29989C1.9159 9.66808 1.91538 13.0363 1.91695 16.4045C1.91748 17.2008 2.49212 17.7339 3.34751 17.7339C6.86986 17.7349 10.3917 17.7354 13.914 17.731C14.1009 17.7305 14.2961 17.7043 14.4724 17.6483C15.0345 17.4698 15.353 16.9999 15.353 16.3767C15.3546 14.1332 15.354 11.8897 15.354 9.64619Z" fill="white"/>
<path d="M8.61762 15.2487C7.28047 15.2487 5.94332 15.2487 4.60565 15.2487C4.17637 15.2487 3.87252 14.9894 3.87305 14.6222C3.87357 14.2539 4.17847 14.0015 4.60879 14.0019C7.29621 14.0034 9.98416 14.0034 12.6716 14.0019C13.1008 14.0019 13.4052 14.2564 13.4042 14.6256C13.4031 14.9924 13.0998 15.2492 12.6684 15.2487C11.3182 15.2487 9.96789 15.2487 8.61762 15.2487Z" fill="white"/>
<path d="M8.69087 12.1316C7.35267 12.1316 6.01447 12.1335 4.67628 12.1306C4.3126 12.1296 4.03551 11.8903 4.00088 11.5634C3.96834 11.2579 4.20817 10.9646 4.54718 10.9018C4.61697 10.8887 4.69044 10.8896 4.76234 10.8896C7.40568 10.8887 10.0495 10.8882 12.6929 10.8877C13.1048 10.8877 13.4055 11.1538 13.4045 11.5162C13.4034 11.8728 13.1127 12.132 12.7049 12.1325C11.3667 12.134 10.0285 12.133 8.69035 12.133C8.69087 12.1325 8.69087 12.132 8.69087 12.1316Z" fill="white"/>
<path d="M11.9926 6.48534C11.9926 7.09876 11.9942 7.71217 11.9921 8.32559C11.991 8.73372 11.7207 9.0144 11.3313 9.01829C10.9378 9.02218 10.6523 8.73129 10.6518 8.31975C10.6502 7.09292 10.6502 5.86658 10.6507 4.63975C10.6507 4.25642 10.9367 3.9806 11.3277 3.98158C11.7202 3.98255 11.9931 4.25448 11.9931 4.64558C11.9936 5.259 11.9931 5.87241 11.9931 6.48583C11.9936 6.48534 11.9931 6.48534 11.9926 6.48534Z" fill="white"/>
<path d="M7.96785 7.16928C7.96785 6.77428 7.96627 6.37928 7.96837 5.98477C7.97047 5.61799 8.26645 5.33682 8.64167 5.34071C9.01112 5.34411 9.30552 5.6209 9.3071 5.97601C9.31025 6.77185 9.31025 7.56768 9.3071 8.36351C9.30552 8.73516 9.01479 9.01585 8.64167 9.01828C8.25963 9.02071 7.971 8.73857 7.9689 8.35427C7.96575 7.95927 7.96785 7.56428 7.96785 7.16928Z" fill="white"/>
<path d="M6.61953 7.42026C6.61953 7.7423 6.62792 8.06481 6.61743 8.38684C6.60641 8.72006 6.37865 8.95794 6.04279 9.01145C5.75468 9.05717 5.44348 8.89567 5.33276 8.63104C5.29812 8.54834 5.28133 8.45397 5.2808 8.36495C5.27555 7.73257 5.27241 7.10018 5.2766 6.46779C5.27923 6.10685 5.57153 5.8427 5.94938 5.84368C6.32407 5.84465 6.6106 6.10976 6.62162 6.47168C6.62635 6.62978 6.6211 6.78788 6.6211 6.94597C6.6211 7.10407 6.6211 7.26217 6.6211 7.42026C6.62057 7.42026 6.62005 7.42026 6.61953 7.42026Z" fill="white"/>
</svg>
