<svg width="25" height="24" viewBox="0 0 25 24" fill="none" xmlns="http://www.w3.org/2000/svg">
<g clip-path="url(#clip0_639_18174)">
<path d="M16.7871 5.14948C17.9869 4.32194 19.1951 3.48857 20.3332 2.70437C20.3549 2.28852 20.3157 1.926 20.4025 1.59682C20.6538 0.647613 21.6975 0.145091 22.6152 0.490106C23.542 0.839288 23.9745 1.921 23.5428 2.81271C23.117 3.69358 22.019 4.04026 21.1765 3.53274C20.9603 3.40273 20.83 3.41273 20.6321 3.55191C19.5934 4.28444 18.5447 5.00364 17.4943 5.7195C17.3381 5.82617 17.2764 5.91451 17.3231 6.12119C17.4751 6.79288 17.1686 7.48041 16.59 7.8496C16.0122 8.21878 15.2649 8.20795 14.7113 7.78793C14.5351 7.65375 14.4232 7.66876 14.2479 7.77209C13.2701 8.34962 12.2874 8.91881 11.2996 9.478C11.0959 9.59301 11.0115 9.70468 11.0349 9.95969C11.1209 10.9114 10.4446 11.6889 9.49439 11.7731C8.61015 11.8514 7.80857 11.1739 7.71672 10.2514C7.70002 10.0805 7.62989 10.023 7.48627 9.98136C6.55611 9.71051 5.62678 9.43967 4.69996 9.15715C4.54215 9.10882 4.46617 9.14965 4.3643 9.26966C3.84912 9.87885 3.08762 10.0564 2.38958 9.74635C1.71743 9.44717 1.30412 8.72714 1.40431 8.02544C1.51536 7.24374 2.06895 6.68788 2.85884 6.56537C3.72053 6.4312 4.57304 7.05706 4.70747 7.9521C4.74421 8.19628 4.83606 8.29878 5.07069 8.36379C5.95409 8.60796 6.83165 8.87297 7.70754 9.13965C7.87787 9.19132 7.97557 9.17632 8.09998 9.02465C8.67528 8.32545 9.63884 8.20961 10.3703 8.74964C10.5222 8.86131 10.6199 8.87131 10.7777 8.7788C11.7922 8.18211 12.8126 7.59459 13.8329 7.00706C13.9648 6.93122 14.0609 6.86705 14.0375 6.67705C13.9473 5.95701 14.207 5.37782 14.8341 5.00864C15.4711 4.63362 16.1099 4.69696 16.7144 5.11698C16.7303 5.12864 16.7503 5.13364 16.7871 5.14948ZM10.1699 10.0814C10.1665 9.64384 9.81084 9.29049 9.37498 9.29133C8.93746 9.29216 8.5851 9.64384 8.58176 10.083C8.57842 10.5364 8.9433 10.8989 9.39252 10.8881C9.83339 10.8772 10.1732 10.5255 10.1699 10.0814ZM3.86832 8.21295C3.86081 7.78043 3.48507 7.41541 3.05756 7.42541C2.62338 7.43541 2.26434 7.80459 2.26935 8.23628C2.27436 8.66547 2.65177 9.03131 3.08011 9.02298C3.51429 9.01465 3.87584 8.64297 3.86832 8.21295ZM22.0073 2.87854C22.4457 2.87354 22.8039 2.51019 22.7972 2.07684C22.7905 1.64349 22.4198 1.28514 21.9873 1.29264C21.5506 1.30014 21.1957 1.66266 21.1982 2.09851C21.1999 2.53103 21.5656 2.88354 22.0073 2.87854ZM16.4806 6.43787C16.4806 5.99618 16.1283 5.64867 15.6849 5.65117C15.2357 5.65367 14.8967 5.99451 14.895 6.44287C14.8942 6.88122 15.2474 7.23207 15.6899 7.23124C16.1308 7.23124 16.4806 6.88039 16.4806 6.43787Z" fill="#EE4959"/>
<path d="M19.7509 15.4175C19.7509 13.1057 19.7509 10.7931 19.7509 8.48132C19.7509 7.46128 20.2168 7.00042 21.248 6.99876C21.7907 6.99792 22.3335 6.99292 22.8754 7.00042C23.7396 7.01126 24.2364 7.50878 24.2364 8.36465C24.2381 13.0507 24.2381 17.7376 24.2364 22.4236C24.2364 23.2845 23.7354 23.7878 22.8821 23.7903C22.2876 23.792 21.6922 23.7928 21.0977 23.7903C20.2611 23.787 19.7526 23.287 19.7517 22.4461C19.7484 20.1035 19.7509 17.7601 19.7509 15.4175ZM23.3613 15.4C23.3613 13.089 23.3613 10.7789 23.3613 8.46799C23.3613 7.96297 23.272 7.87546 22.756 7.8738C22.2558 7.87296 21.7548 7.87296 21.2547 7.8738C20.7061 7.87463 20.6285 7.95297 20.6285 8.51132C20.6285 12.539 20.6285 16.5675 20.6285 20.5952C20.6285 21.1777 20.6276 21.7611 20.6285 22.3436C20.6293 22.8195 20.7236 22.9145 21.1887 22.9153C21.7206 22.9161 22.2525 22.9161 22.7844 22.9153C23.2737 22.9145 23.3622 22.8261 23.3622 22.3311C23.3613 20.021 23.3613 17.7101 23.3613 15.4Z" fill="#EE4959"/>
<path d="M17.9224 17.6976C17.9224 19.2701 17.9232 20.8435 17.9224 22.4161C17.9216 23.2986 17.4314 23.7887 16.5505 23.7912C15.956 23.7928 15.3607 23.7945 14.7662 23.7903C13.973 23.7862 13.4561 23.2961 13.4545 22.5153C13.4486 19.2968 13.4486 16.0783 13.4545 12.8599C13.4561 12.0798 13.9479 11.5956 14.7286 11.5848C15.3649 11.5756 16.002 11.5765 16.6382 11.5848C17.4281 11.5956 17.9199 12.0948 17.9216 12.8857C17.9249 14.4899 17.9224 16.0933 17.9224 17.6976ZM14.3278 17.6626C14.3278 19.2126 14.3278 20.7635 14.3278 22.3136C14.3278 22.857 14.3888 22.9153 14.9449 22.9153C15.4768 22.9153 16.0086 22.917 16.5397 22.9145C16.9388 22.9128 17.044 22.812 17.044 22.4194C17.0449 19.2668 17.0449 16.1133 17.044 12.9607C17.044 12.5532 16.9522 12.459 16.5522 12.4565C16.0103 12.4532 15.4676 12.4548 14.9257 12.4557C14.3855 12.4565 14.327 12.5123 14.327 13.0407C14.3278 14.5833 14.3287 16.1225 14.3278 17.6626Z" fill="#EE4959"/>
<path d="M0.827192 18.4634C0.827192 17.1417 0.825522 15.8191 0.828027 14.4974C0.829697 13.6357 1.32233 13.1432 2.1857 13.139C2.79022 13.1356 3.39558 13.134 4.0001 13.1398C4.80418 13.1482 5.31017 13.644 5.31184 14.4499C5.31769 17.125 5.31769 19.8001 5.31184 22.4752C5.31017 23.2903 4.79082 23.787 3.9692 23.7903C3.35383 23.7928 2.73845 23.7945 2.12307 23.7895C1.34905 23.7836 0.831367 23.2686 0.828027 22.4911C0.823017 21.1493 0.827192 19.8068 0.827192 18.4634ZM1.70308 18.4576C1.70308 19.7801 1.70141 21.1018 1.70392 22.4244C1.70475 22.7961 1.82081 22.9136 2.1857 22.9152C2.77018 22.9186 3.35383 22.9177 3.93831 22.9152C4.31238 22.9136 4.43428 22.8019 4.43428 22.4369C4.43762 19.7926 4.43762 17.1475 4.43595 14.5032C4.43595 14.1282 4.32323 14.0174 3.95167 14.0149C3.37804 14.0107 2.80441 14.0115 2.23079 14.014C1.7991 14.0157 1.70392 14.1132 1.70392 14.5532C1.70308 15.8549 1.70308 17.1558 1.70308 18.4576Z" fill="#EE4959"/>
<path d="M7.14226 19.3459C7.14226 18.3259 7.13975 17.3059 7.14309 16.2858C7.1456 15.4608 7.63907 14.9716 8.46903 14.9674C9.09443 14.9649 9.72066 14.9624 10.3461 14.9682C11.0984 14.9749 11.606 15.4649 11.6094 16.2208C11.6186 18.3234 11.6186 20.426 11.6094 22.5286C11.606 23.2911 11.0867 23.7845 10.3168 23.7903C9.69143 23.7945 9.0652 23.7945 8.43981 23.7903C7.65744 23.7853 7.14643 23.2778 7.14309 22.5002C7.13892 21.4485 7.14226 20.3977 7.14226 19.3459ZM8.01898 19.3393C8.01898 20.3802 8.01731 21.421 8.01981 22.4627C8.02065 22.7953 8.13922 22.9128 8.47154 22.9153C9.07606 22.9194 9.68141 22.9203 10.2868 22.9153C10.6183 22.9128 10.7343 22.7978 10.7352 22.4586C10.7385 20.3977 10.7385 18.3359 10.7343 16.275C10.7335 15.9491 10.6258 15.8475 10.2985 15.8441C9.70396 15.8391 9.10946 15.8408 8.51495 15.8433C8.11083 15.845 8.02065 15.9358 8.01981 16.3416C8.01731 17.34 8.01898 18.3392 8.01898 19.3393Z" fill="#EE4959"/>
</g>
<defs>
<clipPath id="clip0_639_18174">
<rect width="23.4127" height="23.4127" fill="white" transform="translate(0.825195 0.380981)"/>
</clipPath>
</defs>
</svg>
