<svg width="16" height="16" viewBox="0 0 16 16" fill="none" xmlns="http://www.w3.org/2000/svg">
<g clip-path="url(#clip0_930_7006)">
<path d="M8.01492 15.3871C6.63457 15.3871 5.25364 15.4125 3.87447 15.3809C1.91966 15.3363 0.232118 13.7241 0.208622 11.8422C0.175729 9.20021 0.175729 6.55652 0.208622 3.91452C0.232118 2.036 1.92965 0.411983 3.87799 0.379254C5.76701 0.347089 7.65662 0.365711 9.54564 0.367968C10.0338 0.368532 10.3615 0.676069 10.3627 1.10719C10.3639 1.53887 10.0379 1.8481 9.54916 1.84979C7.76763 1.85487 5.98552 1.8481 4.20399 1.85374C3.04156 1.85769 2.14639 2.488 1.84154 3.52234C1.77341 3.7537 1.74521 4.00368 1.74462 4.24463C1.73758 6.67107 1.73816 9.09751 1.74169 11.5239C1.74345 12.6565 2.39955 13.5198 3.48915 13.8155C3.72058 13.8782 3.9708 13.9041 4.21221 13.9047C6.74794 13.9109 9.28308 13.9109 11.8188 13.9075C12.9842 13.9058 13.8735 13.2862 14.1854 12.2457C14.26 11.9974 14.2846 11.7277 14.2858 11.4681C14.2946 9.78481 14.2864 8.10097 14.2929 6.4177C14.2952 5.83366 14.8015 5.48155 15.3402 5.67736C15.6556 5.79191 15.8271 6.01819 15.833 6.34265C15.8412 6.79408 15.8383 7.24551 15.8377 7.69694C15.8359 9.07945 15.8576 10.4625 15.8242 11.8439C15.7783 13.732 14.1149 15.3363 12.156 15.3803C10.7762 15.4125 9.39527 15.3871 8.01492 15.3871Z" fill="#8F95B2"/>
<path d="M14.0178 0.369105C14.7632 0.371926 15.4416 0.78555 15.6971 1.43561C15.9855 2.16918 15.8598 2.84407 15.2766 3.4078C13.8428 4.79482 12.4002 6.17394 10.9611 7.55644C9.86619 8.60828 9.86677 8.60884 8.39832 9.05745C8.06469 9.15959 7.73458 9.28091 7.39331 9.34975C6.81592 9.46543 6.33603 9.01964 6.49227 8.47398C6.71665 7.69018 7.00564 6.92388 7.27995 6.15419C7.31871 6.04528 7.42033 5.95161 7.50903 5.86584C9.223 4.21586 10.9387 2.56814 12.6551 0.91985C13.0304 0.558706 13.4756 0.353305 14.0178 0.369105Z" fill="#8F95B2"/>
</g>
<defs>
<clipPath id="clip0_930_7006">
<rect width="15.6625" height="15.036" fill="white" transform="translate(0.183228 0.360657)"/>
</clipPath>
</defs>
</svg>
